G04 Layer_Color=16711935*
%FSLAX25Y25*%
%MOIN*%
G70*
G01*
G75*
%ADD17C,0.00800*%
%ADD33C,0.00800*%
%ADD34C,0.06800*%
%ADD35R,0.06800X0.06800*%
%ADD36C,0.05800*%
D17*
X433071Y488189D02*
Y724409D01*
X196850Y488189D02*
X433071D01*
X196850D02*
Y724409D01*
X433071D01*
D33*
X216535Y704724D02*
D03*
X413386D02*
D03*
Y507874D02*
D03*
X216535D02*
D03*
D34*
X365000Y600000D02*
D03*
X395000D02*
D03*
X365000Y680000D02*
D03*
X395000D02*
D03*
X365000Y610000D02*
D03*
X395000D02*
D03*
X365000Y620000D02*
D03*
X395000D02*
D03*
X365000Y670000D02*
D03*
X395000D02*
D03*
X365000Y660000D02*
D03*
X395000D02*
D03*
X365000Y650000D02*
D03*
X395000D02*
D03*
X365000Y630000D02*
D03*
X395000D02*
D03*
Y640000D02*
D03*
X365000D02*
D03*
X272000Y599685D02*
D03*
Y580000D02*
D03*
X318063Y542961D02*
D03*
X308063D02*
D03*
Y513039D02*
D03*
X318063D02*
D03*
X268299D02*
D03*
Y542961D02*
D03*
X220000Y670000D02*
D03*
Y660000D02*
D03*
Y650000D02*
D03*
Y640000D02*
D03*
Y630000D02*
D03*
Y620000D02*
D03*
Y560000D02*
D03*
Y530000D02*
D03*
D35*
Y680000D02*
D03*
Y570000D02*
D03*
Y540000D02*
D03*
D36*
X286000Y604000D02*
D03*
X308000Y662000D02*
D03*
X290000Y612000D02*
D03*
X296000Y664000D02*
D03*
X302000Y616000D02*
D03*
X258000Y614000D02*
D03*
X216000Y608000D02*
D03*
M02*
