M48
;Layer_Color=9474304
;FILE_FORMAT=2:5
INCH,LZ
;TYPE=PLATED
T1F00S00C0.02800
T2F00S00C0.03000
T3F00S00C0.03500
T4F00S00C0.03543
;TYPE=NON_PLATED
T5F00S00C0.11811
%
T01
X0216Y0608
X0258Y0614
X029Y0612
X0286Y0604
X0302Y0616
X0308Y0662
X0296Y0664
T02
X0365Y06
Y061
Y062
X0395
Y061
Y06
X0272Y0599685
Y058
X0365Y063
Y064
Y065
Y066
Y067
Y068
X0395
Y067
Y066
Y065
Y064
Y063
T03
X0318063Y0513039
Y0542961
X0308063
Y0513039
X0268299
Y0542961
T04
X022Y053
Y054
Y056
Y057
Y062
Y063
Y064
Y065
Y066
Y067
Y068
T05
X0413386Y0507874
X0216535
Y0704724
X0413386
M30
