G04 Layer_Physical_Order=1*
G04 Layer_Color=255*
%FSLAX25Y25*%
%MOIN*%
G70*
G01*
G75*
%ADD10R,0.06496X0.03543*%
%ADD11R,0.03543X0.06496*%
%ADD12O,0.02362X0.05709*%
%ADD13R,0.03543X0.05512*%
%ADD14R,0.03150X0.03150*%
%ADD15R,0.03150X0.03150*%
%ADD16C,0.01600*%
%ADD17C,0.00800*%
%ADD18C,0.06000*%
%ADD19R,0.06000X0.06000*%
%ADD20C,0.05000*%
G36*
X427808Y493451D02*
X202113D01*
Y719147D01*
X427808D01*
Y493451D01*
D02*
G37*
%LPC*%
G36*
X245661Y583500D02*
X243390D01*
Y580244D01*
X245661D01*
Y583500D01*
D02*
G37*
G36*
X248933Y569756D02*
X246661D01*
Y566500D01*
X248933D01*
Y569756D01*
D02*
G37*
G36*
Y583500D02*
X246661D01*
Y580244D01*
X248933D01*
Y583500D01*
D02*
G37*
G36*
Y587756D02*
X246661D01*
Y584500D01*
X248933D01*
Y587756D01*
D02*
G37*
G36*
X245661D02*
X243390D01*
Y584500D01*
X245661D01*
Y587756D01*
D02*
G37*
G36*
X289500Y564768D02*
X285752D01*
Y562496D01*
X289500D01*
Y564768D01*
D02*
G37*
G36*
X335500D02*
X331752D01*
Y562496D01*
X335500D01*
Y564768D01*
D02*
G37*
G36*
X340248D02*
X336500D01*
Y562496D01*
X340248D01*
Y564768D01*
D02*
G37*
G36*
X245661Y569756D02*
X243390D01*
Y566500D01*
X245661D01*
Y569756D01*
D02*
G37*
G36*
X294248Y564768D02*
X290500D01*
Y562496D01*
X294248D01*
Y564768D01*
D02*
G37*
G36*
X364500Y613969D02*
X363956Y613897D01*
X362983Y613494D01*
X362147Y612853D01*
X361506Y612017D01*
X361103Y611044D01*
X361031Y610500D01*
X364500D01*
Y613969D01*
D02*
G37*
G36*
X232568Y612048D02*
X227424D01*
Y609631D01*
X218896D01*
X218882Y609664D01*
X218354Y610354D01*
X217664Y610883D01*
X216862Y611215D01*
X216000Y611329D01*
X215139Y611215D01*
X214336Y610883D01*
X213646Y610354D01*
X213118Y609664D01*
X212785Y608861D01*
X212671Y608000D01*
X212785Y607138D01*
X213118Y606336D01*
X213646Y605646D01*
X214336Y605118D01*
X215139Y604785D01*
X216000Y604671D01*
X216862Y604785D01*
X217664Y605118D01*
X218354Y605646D01*
X218882Y606336D01*
X218896Y606369D01*
X227424D01*
Y603952D01*
X232568D01*
Y612048D01*
D02*
G37*
G36*
X365500Y613969D02*
Y610500D01*
X368969D01*
X368897Y611044D01*
X368494Y612017D01*
X367853Y612853D01*
X367017Y613494D01*
X366044Y613897D01*
X365500Y613969D01*
D02*
G37*
G36*
X223969Y619500D02*
X220500D01*
Y616031D01*
X221044Y616103D01*
X222017Y616506D01*
X222853Y617147D01*
X223494Y617983D01*
X223897Y618956D01*
X223969Y619500D01*
D02*
G37*
G36*
X219500D02*
X216031D01*
X216103Y618956D01*
X216506Y617983D01*
X217147Y617147D01*
X217983Y616506D01*
X218956Y616103D01*
X219500Y616031D01*
Y619500D01*
D02*
G37*
G36*
X395000Y603833D02*
X394008Y603702D01*
X393084Y603319D01*
X392290Y602710D01*
X391681Y601916D01*
X391298Y600992D01*
X391167Y600000D01*
X391298Y599008D01*
X391681Y598084D01*
X392290Y597290D01*
X393084Y596681D01*
X394008Y596298D01*
X395000Y596167D01*
X395992Y596298D01*
X396916Y596681D01*
X397710Y597290D01*
X398319Y598084D01*
X398702Y599008D01*
X398833Y600000D01*
X398702Y600992D01*
X398319Y601916D01*
X397710Y602710D01*
X396916Y603319D01*
X395992Y603702D01*
X395000Y603833D01*
D02*
G37*
G36*
X365000D02*
X364008Y603702D01*
X363084Y603319D01*
X362290Y602710D01*
X361681Y601916D01*
X361298Y600992D01*
X361167Y600000D01*
X361298Y599008D01*
X361681Y598084D01*
X362290Y597290D01*
X363084Y596681D01*
X364008Y596298D01*
X365000Y596167D01*
X365992Y596298D01*
X366916Y596681D01*
X367710Y597290D01*
X368319Y598084D01*
X368702Y599008D01*
X368833Y600000D01*
X368702Y600992D01*
X368319Y601916D01*
X367710Y602710D01*
X366916Y603319D01*
X365992Y603702D01*
X365000Y603833D01*
D02*
G37*
G36*
X364500Y609500D02*
X361031D01*
X361103Y608956D01*
X361506Y607983D01*
X362147Y607147D01*
X362983Y606506D01*
X363956Y606103D01*
X364500Y606031D01*
Y609500D01*
D02*
G37*
G36*
X395000Y613833D02*
X394008Y613702D01*
X393084Y613319D01*
X392290Y612710D01*
X391681Y611916D01*
X391298Y610992D01*
X391167Y610000D01*
X391298Y609008D01*
X391681Y608084D01*
X392290Y607290D01*
X393084Y606681D01*
X394008Y606298D01*
X395000Y606167D01*
X395992Y606298D01*
X396916Y606681D01*
X397710Y607290D01*
X398319Y608084D01*
X398702Y609008D01*
X398833Y610000D01*
X398702Y610992D01*
X398319Y611916D01*
X397710Y612710D01*
X396916Y613319D01*
X395992Y613702D01*
X395000Y613833D01*
D02*
G37*
G36*
X368969Y609500D02*
X365500D01*
Y606031D01*
X366044Y606103D01*
X367017Y606506D01*
X367853Y607147D01*
X368494Y607983D01*
X368897Y608956D01*
X368969Y609500D01*
D02*
G37*
G36*
X307563Y546929D02*
X307019Y546858D01*
X306046Y546455D01*
X305210Y545814D01*
X304569Y544978D01*
X304166Y544005D01*
X304094Y543461D01*
X307563D01*
Y546929D01*
D02*
G37*
G36*
X312032Y542461D02*
X308563D01*
Y538992D01*
X309107Y539064D01*
X310080Y539467D01*
X310916Y540108D01*
X311557Y540943D01*
X311960Y541916D01*
X312032Y542461D01*
D02*
G37*
G36*
X308563Y546929D02*
Y543461D01*
X312032D01*
X311960Y544005D01*
X311557Y544978D01*
X310916Y545814D01*
X310080Y546455D01*
X309107Y546858D01*
X308563Y546929D01*
D02*
G37*
G36*
X289500Y561496D02*
X285752D01*
Y559224D01*
X289500D01*
Y561496D01*
D02*
G37*
G36*
X362048Y564568D02*
X353952D01*
Y559424D01*
X356369D01*
Y552676D01*
X348285Y544592D01*
X321500D01*
X321382Y544877D01*
X320773Y545671D01*
X319979Y546280D01*
X319055Y546663D01*
X318063Y546793D01*
X317071Y546663D01*
X316147Y546280D01*
X315353Y545671D01*
X314744Y544877D01*
X314361Y543953D01*
X314230Y542961D01*
X314361Y541969D01*
X314744Y541044D01*
X315353Y540250D01*
X316147Y539641D01*
X317071Y539258D01*
X318063Y539128D01*
X319055Y539258D01*
X319979Y539641D01*
X320773Y540250D01*
X321382Y541044D01*
X321500Y541329D01*
X348961D01*
X349585Y541454D01*
X350114Y541807D01*
X359154Y550846D01*
X359507Y551376D01*
X359631Y552000D01*
Y559424D01*
X362048D01*
Y564568D01*
D02*
G37*
G36*
X413386Y514612D02*
X412071Y514482D01*
X410807Y514099D01*
X409642Y513476D01*
X408621Y512639D01*
X407783Y511617D01*
X407161Y510453D01*
X406777Y509189D01*
X406648Y507874D01*
X406777Y506560D01*
X407161Y505296D01*
X407783Y504131D01*
X408621Y503110D01*
X409642Y502272D01*
X410807Y501649D01*
X412071Y501265D01*
X413386Y501136D01*
X414700Y501265D01*
X415964Y501649D01*
X417129Y502272D01*
X418150Y503110D01*
X418988Y504131D01*
X419611Y505296D01*
X419994Y506560D01*
X420124Y507874D01*
X419994Y509189D01*
X419611Y510453D01*
X418988Y511617D01*
X418150Y512639D01*
X417129Y513476D01*
X415964Y514099D01*
X414700Y514482D01*
X413386Y514612D01*
D02*
G37*
G36*
X216535D02*
X215221Y514482D01*
X213957Y514099D01*
X212792Y513476D01*
X211771Y512639D01*
X210933Y511617D01*
X210310Y510453D01*
X209927Y509189D01*
X209798Y507874D01*
X209927Y506560D01*
X210310Y505296D01*
X210933Y504131D01*
X211771Y503110D01*
X212792Y502272D01*
X213957Y501649D01*
X215221Y501265D01*
X216535Y501136D01*
X217850Y501265D01*
X219114Y501649D01*
X220279Y502272D01*
X221300Y503110D01*
X222138Y504131D01*
X222761Y505296D01*
X223144Y506560D01*
X223273Y507874D01*
X223144Y509189D01*
X222761Y510453D01*
X222138Y511617D01*
X221300Y512639D01*
X220279Y513476D01*
X219114Y514099D01*
X217850Y514482D01*
X216535Y514612D01*
D02*
G37*
G36*
X318063Y516872D02*
X317071Y516742D01*
X316147Y516359D01*
X315353Y515750D01*
X314744Y514956D01*
X314361Y514031D01*
X314230Y513039D01*
X314361Y512047D01*
X314744Y511123D01*
X315353Y510329D01*
X316147Y509720D01*
X317071Y509337D01*
X318063Y509207D01*
X319055Y509337D01*
X319979Y509720D01*
X320773Y510329D01*
X321382Y511123D01*
X321765Y512047D01*
X321896Y513039D01*
X321765Y514031D01*
X321382Y514956D01*
X320773Y515750D01*
X319979Y516359D01*
X319055Y516742D01*
X318063Y516872D01*
D02*
G37*
G36*
X307563Y542461D02*
X304094D01*
X304166Y541916D01*
X304569Y540943D01*
X305210Y540108D01*
X306046Y539467D01*
X307019Y539064D01*
X307563Y538992D01*
Y542461D01*
D02*
G37*
G36*
X223800Y543800D02*
X216200D01*
Y536200D01*
X223800D01*
Y543800D01*
D02*
G37*
G36*
X245661Y565500D02*
X243390D01*
Y562244D01*
X245661D01*
Y565500D01*
D02*
G37*
G36*
X223800Y573800D02*
X216200D01*
Y566200D01*
X223800D01*
Y568369D01*
X227324D01*
X227369Y568324D01*
Y563000D01*
X227402Y562831D01*
X226762Y561800D01*
X226547Y561631D01*
X223437D01*
X223319Y561916D01*
X222710Y562710D01*
X221916Y563319D01*
X220992Y563702D01*
X220000Y563833D01*
X219008Y563702D01*
X218084Y563319D01*
X217290Y562710D01*
X216681Y561916D01*
X216298Y560992D01*
X216167Y560000D01*
X216298Y559008D01*
X216681Y558084D01*
X217290Y557290D01*
X218084Y556681D01*
X219008Y556298D01*
X220000Y556167D01*
X220992Y556298D01*
X221916Y556681D01*
X222710Y557290D01*
X223319Y558084D01*
X223437Y558369D01*
X227324D01*
X233592Y552101D01*
Y536899D01*
X228324Y531631D01*
X223437D01*
X223319Y531916D01*
X222710Y532710D01*
X221916Y533319D01*
X220992Y533702D01*
X220000Y533833D01*
X219008Y533702D01*
X218084Y533319D01*
X217290Y532710D01*
X216681Y531916D01*
X216298Y530992D01*
X216167Y530000D01*
X216298Y529008D01*
X216681Y528084D01*
X217290Y527290D01*
X218084Y526681D01*
X219008Y526298D01*
X220000Y526167D01*
X220992Y526298D01*
X221916Y526681D01*
X222710Y527290D01*
X223319Y528084D01*
X223437Y528369D01*
X229000D01*
X229624Y528493D01*
X230153Y528847D01*
X236377Y535070D01*
X236731Y535599D01*
X236855Y536224D01*
Y551141D01*
X238055Y551638D01*
X247886Y541807D01*
X248415Y541454D01*
X249039Y541329D01*
X264862D01*
X264980Y541044D01*
X265589Y540250D01*
X266383Y539641D01*
X266668Y539523D01*
Y516477D01*
X266383Y516359D01*
X265589Y515750D01*
X264980Y514956D01*
X264597Y514031D01*
X264466Y513039D01*
X264597Y512047D01*
X264980Y511123D01*
X265589Y510329D01*
X266383Y509720D01*
X267307Y509337D01*
X268299Y509207D01*
X269291Y509337D01*
X270216Y509720D01*
X271009Y510329D01*
X271619Y511123D01*
X272001Y512047D01*
X272132Y513039D01*
X272001Y514031D01*
X271619Y514956D01*
X271009Y515750D01*
X270216Y516359D01*
X269931Y516477D01*
Y539523D01*
X270216Y539641D01*
X271009Y540250D01*
X271619Y541044D01*
X272001Y541969D01*
X272132Y542961D01*
X272001Y543953D01*
X271619Y544877D01*
X271009Y545671D01*
X270216Y546280D01*
X269291Y546663D01*
X268299Y546793D01*
X267307Y546663D01*
X266383Y546280D01*
X265589Y545671D01*
X264980Y544877D01*
X264862Y544592D01*
X249715D01*
X230631Y563676D01*
Y569000D01*
X230507Y569624D01*
X230153Y570154D01*
X229153Y571153D01*
X228624Y571507D01*
X228000Y571631D01*
X223800D01*
Y573800D01*
D02*
G37*
G36*
X248933Y565500D02*
X246661D01*
Y562244D01*
X248933D01*
Y565500D01*
D02*
G37*
G36*
X322248Y564768D02*
X318500D01*
Y562496D01*
X322248D01*
Y564768D01*
D02*
G37*
G36*
X317500D02*
X313752D01*
Y562496D01*
X317500D01*
Y564768D01*
D02*
G37*
G36*
X335500Y561496D02*
X331752D01*
Y559224D01*
X335500D01*
Y561496D01*
D02*
G37*
G36*
X294248D02*
X290500D01*
Y559224D01*
X294248D01*
Y561496D01*
D02*
G37*
G36*
X340248D02*
X336500D01*
Y559224D01*
X340248D01*
Y561496D01*
D02*
G37*
G36*
X322248Y561496D02*
X318500D01*
Y559224D01*
X322248D01*
Y561496D01*
D02*
G37*
G36*
X317500D02*
X313752D01*
Y559224D01*
X317500D01*
Y561496D01*
D02*
G37*
G36*
X322768Y667500D02*
X320496D01*
Y663752D01*
X322768D01*
Y667500D01*
D02*
G37*
G36*
X319496D02*
X317224D01*
Y663752D01*
X319496D01*
Y667500D01*
D02*
G37*
G36*
X395000Y673833D02*
X394008Y673702D01*
X393084Y673319D01*
X392290Y672710D01*
X391681Y671916D01*
X391298Y670992D01*
X391167Y670000D01*
X391298Y669008D01*
X391681Y668084D01*
X392290Y667290D01*
X393084Y666681D01*
X394008Y666298D01*
X395000Y666167D01*
X395992Y666298D01*
X396916Y666681D01*
X397710Y667290D01*
X398319Y668084D01*
X398702Y669008D01*
X398833Y670000D01*
X398702Y670992D01*
X398319Y671916D01*
X397710Y672710D01*
X396916Y673319D01*
X395992Y673702D01*
X395000Y673833D01*
D02*
G37*
G36*
X322768Y672248D02*
X320496D01*
Y668500D01*
X322768D01*
Y672248D01*
D02*
G37*
G36*
X319496D02*
X317224D01*
Y668500D01*
X319496D01*
Y672248D01*
D02*
G37*
G36*
X365000Y663833D02*
X364008Y663702D01*
X363084Y663319D01*
X362290Y662710D01*
X361681Y661916D01*
X361298Y660992D01*
X361167Y660000D01*
X361298Y659008D01*
X361681Y658084D01*
X362290Y657290D01*
X363084Y656681D01*
X364008Y656298D01*
X365000Y656167D01*
X365992Y656298D01*
X366916Y656681D01*
X367710Y657290D01*
X368319Y658084D01*
X368702Y659008D01*
X368833Y660000D01*
X368702Y660992D01*
X368319Y661916D01*
X367710Y662710D01*
X366916Y663319D01*
X365992Y663702D01*
X365000Y663833D01*
D02*
G37*
G36*
X220000D02*
X219008Y663702D01*
X218084Y663319D01*
X217290Y662710D01*
X216681Y661916D01*
X216298Y660992D01*
X216167Y660000D01*
X216298Y659008D01*
X216681Y658084D01*
X217290Y657290D01*
X218084Y656681D01*
X219008Y656298D01*
X220000Y656167D01*
X220992Y656298D01*
X221916Y656681D01*
X222710Y657290D01*
X223319Y658084D01*
X223702Y659008D01*
X223833Y660000D01*
X223702Y660992D01*
X223319Y661916D01*
X222710Y662710D01*
X221916Y663319D01*
X220992Y663702D01*
X220000Y663833D01*
D02*
G37*
G36*
X394500Y663969D02*
X393956Y663897D01*
X392983Y663494D01*
X392147Y662853D01*
X391506Y662017D01*
X391103Y661044D01*
X391031Y660500D01*
X394500D01*
Y663969D01*
D02*
G37*
G36*
X322568Y684048D02*
X317424D01*
Y681631D01*
X310000D01*
X309376Y681507D01*
X308846Y681153D01*
X306846Y679153D01*
X306493Y678624D01*
X306369Y678000D01*
Y664896D01*
X306336Y664883D01*
X305646Y664354D01*
X305118Y663664D01*
X305104Y663631D01*
X302000D01*
X302000Y663631D01*
X301376Y663507D01*
X300847Y663154D01*
X300511Y662818D01*
X299313Y663137D01*
X299227Y663231D01*
X299328Y664000D01*
X299215Y664861D01*
X298883Y665664D01*
X298354Y666354D01*
X297664Y666883D01*
X297631Y666896D01*
Y668000D01*
X297507Y668624D01*
X297153Y669153D01*
X295153Y671153D01*
X294624Y671507D01*
X294000Y671631D01*
X283328D01*
Y672375D01*
X278622D01*
X278578Y672375D01*
X277422D01*
X277378Y672375D01*
X272673D01*
X272672Y672375D01*
X271631Y672758D01*
Y676000D01*
X271507Y676624D01*
X271153Y677153D01*
X269153Y679153D01*
X268624Y679507D01*
X268000Y679631D01*
X266576D01*
Y682048D01*
X261432D01*
Y673952D01*
X266576D01*
Y674840D01*
X267776Y675400D01*
X268369Y674942D01*
Y672000D01*
X268493Y671376D01*
X268847Y670847D01*
X270847Y668847D01*
X271376Y668493D01*
X272000Y668369D01*
X272672D01*
Y667625D01*
X277378D01*
X277422Y667625D01*
X278578D01*
X278622Y667625D01*
X283328D01*
Y668369D01*
X292811D01*
X293610Y667521D01*
X293646Y666354D01*
X293117Y665664D01*
X292785Y664861D01*
X292671Y664000D01*
X292785Y663138D01*
X293117Y662336D01*
X293646Y661646D01*
X294336Y661118D01*
X295139Y660785D01*
X296000Y660672D01*
X296769Y660773D01*
X296863Y660687D01*
X297182Y659489D01*
X290846Y653154D01*
X290493Y652624D01*
X290369Y652000D01*
Y649526D01*
X290134Y649175D01*
X290112Y649063D01*
X288888D01*
X288866Y649175D01*
X288428Y649830D01*
X287773Y650268D01*
X287000Y650421D01*
X286227Y650268D01*
X285572Y649830D01*
X285551Y649799D01*
X284098Y649651D01*
X283631Y650157D01*
Y652000D01*
X283507Y652624D01*
X283154Y653154D01*
X265154Y671153D01*
X264624Y671507D01*
X264000Y671631D01*
X223437D01*
X223319Y671916D01*
X222710Y672710D01*
X221916Y673319D01*
X220992Y673702D01*
X220000Y673833D01*
X219008Y673702D01*
X218084Y673319D01*
X217290Y672710D01*
X216681Y671916D01*
X216298Y670992D01*
X216167Y670000D01*
X216298Y669008D01*
X216681Y668084D01*
X217290Y667290D01*
X218084Y666681D01*
X219008Y666298D01*
X220000Y666167D01*
X220992Y666298D01*
X221916Y666681D01*
X222710Y667290D01*
X223319Y668084D01*
X223437Y668369D01*
X263324D01*
X280369Y651324D01*
Y649526D01*
X280134Y649175D01*
X280112Y649063D01*
X278888D01*
X278866Y649175D01*
X278428Y649830D01*
X277773Y650268D01*
X277000Y650421D01*
X276227Y650268D01*
X275572Y649830D01*
X275551Y649799D01*
X274098Y649651D01*
X273631Y650157D01*
Y652000D01*
X273507Y652624D01*
X273153Y653154D01*
X269153Y657154D01*
X268624Y657507D01*
X268000Y657631D01*
X226000D01*
X225376Y657507D01*
X224847Y657154D01*
X221277Y653584D01*
X220992Y653702D01*
X220000Y653833D01*
X219008Y653702D01*
X218084Y653319D01*
X217290Y652710D01*
X216681Y651916D01*
X216298Y650992D01*
X216167Y650000D01*
X216298Y649008D01*
X216681Y648084D01*
X217290Y647290D01*
X218084Y646681D01*
X219008Y646298D01*
X220000Y646167D01*
X220992Y646298D01*
X221916Y646681D01*
X222710Y647290D01*
X223319Y648084D01*
X223702Y649008D01*
X223833Y650000D01*
X223702Y650992D01*
X223584Y651277D01*
X226676Y654369D01*
X267324D01*
X270369Y651324D01*
Y650059D01*
X269243Y649346D01*
X268955Y649401D01*
X268572Y649974D01*
X267851Y650456D01*
X267500Y650526D01*
Y646728D01*
Y642931D01*
X267851Y643001D01*
X268572Y643483D01*
X268955Y644056D01*
X269516Y644163D01*
X270257Y644098D01*
X270572Y643627D01*
X271227Y643189D01*
X272000Y643035D01*
X272773Y643189D01*
X273428Y643627D01*
X274770Y643474D01*
X274886Y643193D01*
X273324Y641631D01*
X223437D01*
X223319Y641916D01*
X222710Y642710D01*
X221916Y643319D01*
X220992Y643702D01*
X220000Y643833D01*
X219008Y643702D01*
X218084Y643319D01*
X217290Y642710D01*
X216681Y641916D01*
X216298Y640992D01*
X216167Y640000D01*
X216298Y639008D01*
X216681Y638084D01*
X217290Y637290D01*
X218084Y636681D01*
X219008Y636298D01*
X220000Y636167D01*
X220992Y636298D01*
X221916Y636681D01*
X222710Y637290D01*
X223319Y638084D01*
X223377Y638222D01*
X224540Y638234D01*
X224859Y637162D01*
X224847Y637153D01*
X221277Y633584D01*
X220992Y633702D01*
X220000Y633833D01*
X219008Y633702D01*
X218084Y633319D01*
X217290Y632710D01*
X216681Y631916D01*
X216298Y630992D01*
X216167Y630000D01*
X216298Y629008D01*
X216681Y628084D01*
X217290Y627290D01*
X218084Y626681D01*
X219008Y626298D01*
X220000Y626167D01*
X220992Y626298D01*
X221916Y626681D01*
X222710Y627290D01*
X223319Y628084D01*
X223702Y629008D01*
X223833Y630000D01*
X223702Y630992D01*
X223584Y631277D01*
X226676Y634369D01*
X280000D01*
X280624Y634493D01*
X281153Y634846D01*
X288154Y641847D01*
X288507Y642376D01*
X288631Y643000D01*
Y643931D01*
X288866Y644282D01*
X288888Y644393D01*
X290112D01*
X290134Y644282D01*
X290572Y643627D01*
X291227Y643189D01*
X292000Y643035D01*
X292773Y643189D01*
X293428Y643627D01*
X293866Y644282D01*
X293888Y644393D01*
X295112D01*
X295134Y644282D01*
X295572Y643627D01*
X296227Y643189D01*
X297000Y643035D01*
X297773Y643189D01*
X298428Y643627D01*
X298866Y644282D01*
X299020Y645055D01*
Y648402D01*
X298866Y649175D01*
X298631Y649526D01*
Y652324D01*
X300676Y654369D01*
X309324D01*
X312369Y651324D01*
Y644048D01*
X311428D01*
Y641631D01*
X310000D01*
X309376Y641507D01*
X308846Y641153D01*
X306846Y639153D01*
X306493Y638624D01*
X306369Y638000D01*
Y617081D01*
X305215Y616861D01*
X304883Y617664D01*
X304354Y618354D01*
X303664Y618883D01*
X302861Y619215D01*
X302000Y619328D01*
X301138Y619215D01*
X301106Y619201D01*
X298631Y621676D01*
Y622474D01*
X298866Y622825D01*
X299020Y623598D01*
Y626945D01*
X298866Y627718D01*
X298428Y628373D01*
X297773Y628811D01*
X297000Y628965D01*
X296227Y628811D01*
X295572Y628373D01*
X295134Y627718D01*
X295112Y627607D01*
X293888D01*
X293866Y627718D01*
X293428Y628373D01*
X292773Y628811D01*
X292000Y628965D01*
X291227Y628811D01*
X290572Y628373D01*
X290134Y627718D01*
X290112Y627607D01*
X288888D01*
X288866Y627718D01*
X288428Y628373D01*
X287773Y628811D01*
X287000Y628965D01*
X286227Y628811D01*
X285572Y628373D01*
X285134Y627718D01*
X285112Y627607D01*
X283888D01*
X283866Y627718D01*
X283428Y628373D01*
X282773Y628811D01*
X282000Y628965D01*
X281227Y628811D01*
X280572Y628373D01*
X280134Y627718D01*
X280112Y627607D01*
X278888D01*
X278866Y627718D01*
X278428Y628373D01*
X277773Y628811D01*
X277000Y628965D01*
X276227Y628811D01*
X275572Y628373D01*
X275134Y627718D01*
X275112Y627607D01*
X273888D01*
X273866Y627718D01*
X273428Y628373D01*
X272773Y628811D01*
X272000Y628965D01*
X271227Y628811D01*
X270572Y628373D01*
X270134Y627718D01*
X270112Y627607D01*
X268888D01*
X268866Y627718D01*
X268428Y628373D01*
X267773Y628811D01*
X267000Y628965D01*
X266227Y628811D01*
X265572Y628373D01*
X265134Y627718D01*
X264980Y626945D01*
Y623598D01*
X265134Y622825D01*
X265369Y622474D01*
Y619676D01*
X261904Y616211D01*
X261876Y616196D01*
X260399Y616294D01*
X260354Y616354D01*
X259664Y616883D01*
X258861Y617215D01*
X258000Y617329D01*
X257138Y617215D01*
X256336Y616883D01*
X255646Y616354D01*
X255118Y615664D01*
X254785Y614861D01*
X254672Y614000D01*
X254785Y613138D01*
X254799Y613106D01*
X251324Y609631D01*
X244576D01*
Y612048D01*
X239432D01*
Y603952D01*
X244576D01*
Y606369D01*
X252000D01*
X252624Y606493D01*
X253153Y606847D01*
X257106Y610799D01*
X257138Y610785D01*
X258000Y610672D01*
X258861Y610785D01*
X259664Y611118D01*
X260354Y611646D01*
X260882Y612336D01*
X260896Y612369D01*
X262000D01*
X262624Y612493D01*
X263154Y612847D01*
X268154Y617846D01*
X268507Y618376D01*
X268631Y619000D01*
Y621957D01*
X269689Y622370D01*
X269902Y622349D01*
X270369Y621843D01*
Y603122D01*
X270084Y603004D01*
X269290Y602395D01*
X268681Y601601D01*
X268563Y601316D01*
X261685D01*
X261061Y601192D01*
X260531Y600839D01*
X252685Y592992D01*
X252331Y592463D01*
X252207Y591839D01*
Y587556D01*
X251267D01*
Y580444D01*
X256410D01*
Y587556D01*
X255470D01*
Y591163D01*
X262361Y598054D01*
X268563D01*
X268681Y597769D01*
X269290Y596975D01*
X270084Y596366D01*
X271008Y595983D01*
X272000Y595852D01*
X272992Y595983D01*
X273916Y596366D01*
X274169Y596559D01*
X275369Y595967D01*
Y585676D01*
X273277Y583584D01*
X272992Y583702D01*
X272000Y583833D01*
X271008Y583702D01*
X270084Y583319D01*
X269290Y582710D01*
X268681Y581916D01*
X268298Y580992D01*
X268167Y580000D01*
X268298Y579008D01*
X268416Y578723D01*
X257610Y567917D01*
X256410Y568322D01*
Y569556D01*
X251267D01*
Y562444D01*
X256410D01*
Y564369D01*
X258000D01*
X258624Y564493D01*
X259154Y564847D01*
X270723Y576416D01*
X271008Y576298D01*
X272000Y576167D01*
X272992Y576298D01*
X273916Y576681D01*
X274710Y577290D01*
X275319Y578084D01*
X275702Y579008D01*
X275833Y580000D01*
X275702Y580992D01*
X275584Y581277D01*
X278153Y583847D01*
X278507Y584376D01*
X278631Y585000D01*
Y621957D01*
X279689Y622370D01*
X279902Y622349D01*
X280369Y621843D01*
Y608000D01*
X280493Y607376D01*
X280847Y606847D01*
X282799Y604894D01*
X282785Y604861D01*
X282671Y604000D01*
X282785Y603138D01*
X283118Y602336D01*
X283646Y601646D01*
X284336Y601118D01*
X285139Y600785D01*
X286000Y600671D01*
X286861Y600785D01*
X287664Y601118D01*
X288354Y601646D01*
X288882Y602336D01*
X289215Y603138D01*
X289329Y604000D01*
X289215Y604861D01*
X288882Y605664D01*
X288354Y606354D01*
X287664Y606882D01*
X286861Y607215D01*
X286000Y607329D01*
X285139Y607215D01*
X285106Y607201D01*
X283631Y608676D01*
Y622474D01*
X283866Y622825D01*
X283888Y622936D01*
X285112D01*
X285134Y622825D01*
X285572Y622170D01*
X286227Y621732D01*
X287000Y621579D01*
X287773Y621732D01*
X288428Y622170D01*
X288449Y622201D01*
X289902Y622349D01*
X290369Y621843D01*
Y618000D01*
X290493Y617376D01*
X290846Y616847D01*
X291182Y616511D01*
X290863Y615313D01*
X290769Y615227D01*
X290000Y615329D01*
X289139Y615215D01*
X288336Y614883D01*
X287646Y614354D01*
X287118Y613664D01*
X286785Y612861D01*
X286671Y612000D01*
X286785Y611138D01*
X287118Y610336D01*
X287646Y609646D01*
X288336Y609118D01*
X289139Y608785D01*
X290000Y608672D01*
X290862Y608785D01*
X290894Y608799D01*
X294369Y605324D01*
Y598000D01*
X294493Y597376D01*
X294847Y596846D01*
X297842Y593851D01*
X297625Y593328D01*
X297625D01*
Y588622D01*
X297625Y588578D01*
Y587422D01*
X296715Y586679D01*
X293047D01*
X292423Y586554D01*
X291894Y586201D01*
X288846Y583153D01*
X288493Y582624D01*
X288369Y582000D01*
Y576576D01*
X285952D01*
Y571432D01*
X294048D01*
Y576576D01*
X291631D01*
Y581324D01*
X293723Y583416D01*
X297625D01*
Y582673D01*
X302375D01*
Y587378D01*
X302375Y587422D01*
Y588578D01*
X302375Y588622D01*
Y593328D01*
X301631D01*
Y594000D01*
X301507Y594624D01*
X301153Y595154D01*
X297631Y598676D01*
Y606000D01*
X297507Y606624D01*
X297153Y607154D01*
X293201Y611106D01*
X293215Y611138D01*
X293328Y612000D01*
X293227Y612769D01*
X293313Y612863D01*
X294511Y613182D01*
X312369Y595324D01*
Y593328D01*
X311625D01*
Y592584D01*
X308953D01*
X308329Y592460D01*
X307799Y592106D01*
X304847Y589153D01*
X304493Y588624D01*
X304369Y588000D01*
Y570676D01*
X296847Y563154D01*
X296493Y562624D01*
X296369Y562000D01*
Y523102D01*
X296493Y522478D01*
X296847Y521949D01*
X304479Y514316D01*
X304361Y514031D01*
X304230Y513039D01*
X304361Y512047D01*
X304744Y511123D01*
X305353Y510329D01*
X306147Y509720D01*
X307071Y509337D01*
X308063Y509207D01*
X309055Y509337D01*
X309979Y509720D01*
X310773Y510329D01*
X311382Y511123D01*
X311765Y512047D01*
X311896Y513039D01*
X311765Y514031D01*
X311382Y514956D01*
X310773Y515750D01*
X309979Y516359D01*
X309055Y516742D01*
X308063Y516872D01*
X307071Y516742D01*
X306786Y516623D01*
X299631Y523778D01*
Y561324D01*
X307154Y568847D01*
X307507Y569376D01*
X307631Y570000D01*
Y587324D01*
X309629Y589321D01*
X310715D01*
X311625Y588578D01*
Y587422D01*
X311625Y587378D01*
Y582673D01*
X312369D01*
Y582000D01*
X312493Y581376D01*
X312846Y580847D01*
X315917Y577776D01*
X315420Y576576D01*
X313952D01*
Y571432D01*
X322048D01*
Y576576D01*
X319631D01*
Y578000D01*
X319507Y578624D01*
X319153Y579153D01*
X316158Y582149D01*
X316375Y582673D01*
X316375D01*
Y587378D01*
X316375Y587422D01*
Y588578D01*
X316375Y588622D01*
Y593328D01*
X315631D01*
Y596000D01*
X315507Y596624D01*
X315154Y597154D01*
X315138Y597169D01*
X315635Y598369D01*
X321324D01*
X325842Y593851D01*
X325625Y593328D01*
X325625D01*
Y588622D01*
X325625Y588578D01*
Y587422D01*
X325625Y587378D01*
Y582673D01*
X330375D01*
Y583416D01*
X332277D01*
X334369Y581324D01*
Y576576D01*
X331952D01*
Y571432D01*
X340048D01*
Y576576D01*
X337631D01*
Y582000D01*
X337507Y582624D01*
X337154Y583153D01*
X334106Y586201D01*
X333577Y586554D01*
X332953Y586679D01*
X331285D01*
X330375Y587422D01*
Y588578D01*
X330375Y588622D01*
Y593328D01*
X329631D01*
Y594000D01*
X329507Y594624D01*
X329153Y595154D01*
X323153Y601154D01*
X322624Y601507D01*
X322000Y601631D01*
X314676D01*
X309631Y606676D01*
Y636950D01*
X310228Y637412D01*
X311428Y636858D01*
Y635952D01*
X316572D01*
Y644048D01*
X315631D01*
Y652000D01*
X315507Y652624D01*
X315154Y653154D01*
X311154Y657154D01*
X310624Y657507D01*
X310000Y657631D01*
X309081D01*
X308861Y658785D01*
X309664Y659118D01*
X310354Y659646D01*
X310882Y660336D01*
X311215Y661138D01*
X311329Y662000D01*
X311215Y662861D01*
X310882Y663664D01*
X310354Y664354D01*
X309664Y664883D01*
X309631Y664896D01*
Y677324D01*
X310676Y678369D01*
X317424D01*
Y675952D01*
X322568D01*
Y684048D01*
D02*
G37*
G36*
X395500Y663969D02*
Y660500D01*
X398969D01*
X398897Y661044D01*
X398494Y662017D01*
X397853Y662853D01*
X397017Y663494D01*
X396044Y663897D01*
X395500Y663969D01*
D02*
G37*
G36*
X251496Y682248D02*
X249224D01*
Y678500D01*
X251496D01*
Y682248D01*
D02*
G37*
G36*
X223800Y683800D02*
X216200D01*
Y676200D01*
X223800D01*
Y683800D01*
D02*
G37*
G36*
X254768Y682248D02*
X252496D01*
Y678500D01*
X254768D01*
Y682248D01*
D02*
G37*
G36*
X413386Y711462D02*
X412071Y711333D01*
X410807Y710950D01*
X409642Y710327D01*
X408621Y709489D01*
X407783Y708468D01*
X407161Y707303D01*
X406777Y706039D01*
X406648Y704724D01*
X406777Y703410D01*
X407161Y702146D01*
X407783Y700981D01*
X408621Y699960D01*
X409642Y699122D01*
X410807Y698499D01*
X412071Y698116D01*
X413386Y697986D01*
X414700Y698116D01*
X415964Y698499D01*
X417129Y699122D01*
X418150Y699960D01*
X418988Y700981D01*
X419611Y702146D01*
X419994Y703410D01*
X420124Y704724D01*
X419994Y706039D01*
X419611Y707303D01*
X418988Y708468D01*
X418150Y709489D01*
X417129Y710327D01*
X415964Y710950D01*
X414700Y711333D01*
X413386Y711462D01*
D02*
G37*
G36*
X216535D02*
X215221Y711333D01*
X213957Y710950D01*
X212792Y710327D01*
X211771Y709489D01*
X210933Y708468D01*
X210310Y707303D01*
X209927Y706039D01*
X209798Y704724D01*
X209927Y703410D01*
X210310Y702146D01*
X210933Y700981D01*
X211771Y699960D01*
X212792Y699122D01*
X213957Y698499D01*
X215221Y698116D01*
X216535Y697986D01*
X217850Y698116D01*
X219114Y698499D01*
X220279Y699122D01*
X221300Y699960D01*
X222138Y700981D01*
X222761Y702146D01*
X223144Y703410D01*
X223273Y704724D01*
X223144Y706039D01*
X222761Y707303D01*
X222138Y708468D01*
X221300Y709489D01*
X220279Y710327D01*
X219114Y710950D01*
X217850Y711333D01*
X216535Y711462D01*
D02*
G37*
G36*
X251496Y677500D02*
X249224D01*
Y673752D01*
X251496D01*
Y677500D01*
D02*
G37*
G36*
X406000Y689631D02*
X392000D01*
X391376Y689507D01*
X390846Y689153D01*
X373324Y671631D01*
X368437D01*
X368319Y671916D01*
X367710Y672710D01*
X366916Y673319D01*
X365992Y673702D01*
X365000Y673833D01*
X364008Y673702D01*
X363084Y673319D01*
X362290Y672710D01*
X361681Y671916D01*
X361298Y670992D01*
X361167Y670000D01*
X361298Y669008D01*
X361681Y668084D01*
X362290Y667290D01*
X363084Y666681D01*
X364008Y666298D01*
X365000Y666167D01*
X365992Y666298D01*
X366916Y666681D01*
X367710Y667290D01*
X368319Y668084D01*
X368437Y668369D01*
X374000D01*
X374624Y668493D01*
X375153Y668847D01*
X392676Y686369D01*
X405324D01*
X412369Y679324D01*
Y674576D01*
X409952D01*
Y669432D01*
X418048D01*
Y674576D01*
X415631D01*
Y680000D01*
X415507Y680624D01*
X415154Y681153D01*
X407154Y689153D01*
X406624Y689507D01*
X406000Y689631D01*
D02*
G37*
G36*
X254768Y677500D02*
X252496D01*
Y673752D01*
X254768D01*
Y677500D01*
D02*
G37*
G36*
X395000Y683833D02*
X394008Y683702D01*
X393084Y683319D01*
X392290Y682710D01*
X391681Y681916D01*
X391298Y680992D01*
X391167Y680000D01*
X391298Y679008D01*
X391681Y678084D01*
X392290Y677290D01*
X393084Y676681D01*
X394008Y676298D01*
X395000Y676167D01*
X395992Y676298D01*
X396916Y676681D01*
X397710Y677290D01*
X398319Y678084D01*
X398702Y679008D01*
X398833Y680000D01*
X398702Y680992D01*
X398319Y681916D01*
X397710Y682710D01*
X396916Y683319D01*
X395992Y683702D01*
X395000Y683833D01*
D02*
G37*
G36*
X365000D02*
X364008Y683702D01*
X363084Y683319D01*
X362290Y682710D01*
X361681Y681916D01*
X361298Y680992D01*
X361167Y680000D01*
X361298Y679008D01*
X361681Y678084D01*
X362290Y677290D01*
X363084Y676681D01*
X364008Y676298D01*
X365000Y676167D01*
X365992Y676298D01*
X366916Y676681D01*
X367710Y677290D01*
X368319Y678084D01*
X368702Y679008D01*
X368833Y680000D01*
X368702Y680992D01*
X368319Y681916D01*
X367710Y682710D01*
X366916Y683319D01*
X365992Y683702D01*
X365000Y683833D01*
D02*
G37*
G36*
X398969Y659500D02*
X395500D01*
Y656031D01*
X396044Y656103D01*
X397017Y656506D01*
X397853Y657147D01*
X398494Y657983D01*
X398897Y658956D01*
X398969Y659500D01*
D02*
G37*
G36*
X365000Y633833D02*
X364008Y633702D01*
X363084Y633319D01*
X362290Y632710D01*
X361681Y631916D01*
X361298Y630992D01*
X361167Y630000D01*
X361298Y629008D01*
X361681Y628084D01*
X362290Y627290D01*
X363084Y626681D01*
X364008Y626298D01*
X365000Y626167D01*
X365992Y626298D01*
X366916Y626681D01*
X367710Y627290D01*
X368319Y628084D01*
X368702Y629008D01*
X368833Y630000D01*
X368702Y630992D01*
X368319Y631916D01*
X367710Y632710D01*
X366916Y633319D01*
X365992Y633702D01*
X365000Y633833D01*
D02*
G37*
G36*
X316768Y627500D02*
X314496D01*
Y623752D01*
X316768D01*
Y627500D01*
D02*
G37*
G36*
X395000Y633833D02*
X394008Y633702D01*
X393084Y633319D01*
X392290Y632710D01*
X391681Y631916D01*
X391298Y630992D01*
X391167Y630000D01*
X391298Y629008D01*
X391681Y628084D01*
X392290Y627290D01*
X393084Y626681D01*
X394008Y626298D01*
X395000Y626167D01*
X395992Y626298D01*
X396916Y626681D01*
X397710Y627290D01*
X398319Y628084D01*
X398702Y629008D01*
X398833Y630000D01*
X398702Y630992D01*
X398319Y631916D01*
X397710Y632710D01*
X396916Y633319D01*
X395992Y633702D01*
X395000Y633833D01*
D02*
G37*
G36*
X316768Y632248D02*
X314496D01*
Y628500D01*
X316768D01*
Y632248D01*
D02*
G37*
G36*
X313496D02*
X311224D01*
Y628500D01*
X313496D01*
Y632248D01*
D02*
G37*
G36*
X219500Y623969D02*
X218956Y623897D01*
X217983Y623494D01*
X217147Y622853D01*
X216506Y622017D01*
X216103Y621044D01*
X216031Y620500D01*
X219500D01*
Y623969D01*
D02*
G37*
G36*
X328579Y644048D02*
X323436D01*
Y635952D01*
X324377D01*
Y632048D01*
X323432D01*
Y623952D01*
X324373D01*
Y622996D01*
X324497Y622372D01*
X324850Y621842D01*
X327847Y618847D01*
X328376Y618493D01*
X329000Y618369D01*
X361563D01*
X361681Y618084D01*
X362290Y617290D01*
X363084Y616681D01*
X364008Y616298D01*
X365000Y616167D01*
X365992Y616298D01*
X366916Y616681D01*
X367710Y617290D01*
X368319Y618084D01*
X368702Y619008D01*
X368833Y620000D01*
X368702Y620992D01*
X368319Y621916D01*
X367710Y622710D01*
X366916Y623319D01*
X365992Y623702D01*
X365000Y623833D01*
X364008Y623702D01*
X363084Y623319D01*
X362290Y622710D01*
X361681Y621916D01*
X361563Y621631D01*
X329676D01*
X328555Y622752D01*
X328576Y623952D01*
X328576D01*
Y632048D01*
X327639D01*
Y635952D01*
X328579D01*
Y644048D01*
D02*
G37*
G36*
X220500Y623969D02*
Y620500D01*
X223969D01*
X223897Y621044D01*
X223494Y622017D01*
X222853Y622853D01*
X222017Y623494D01*
X221044Y623897D01*
X220500Y623969D01*
D02*
G37*
G36*
X313496Y627500D02*
X311224D01*
Y623752D01*
X313496D01*
Y627500D01*
D02*
G37*
G36*
X418048Y630568D02*
X409952D01*
Y625424D01*
X411420D01*
X411917Y624224D01*
X409324Y621631D01*
X398437D01*
X398319Y621916D01*
X397710Y622710D01*
X396916Y623319D01*
X395992Y623702D01*
X395000Y623833D01*
X394008Y623702D01*
X393084Y623319D01*
X392290Y622710D01*
X391681Y621916D01*
X391298Y620992D01*
X391167Y620000D01*
X391298Y619008D01*
X391681Y618084D01*
X392290Y617290D01*
X393084Y616681D01*
X394008Y616298D01*
X395000Y616167D01*
X395992Y616298D01*
X396916Y616681D01*
X397710Y617290D01*
X398319Y618084D01*
X398437Y618369D01*
X410000D01*
X410624Y618493D01*
X411154Y618847D01*
X415154Y622847D01*
X415507Y623376D01*
X415631Y624000D01*
Y625424D01*
X418048D01*
Y630568D01*
D02*
G37*
G36*
X334576Y684048D02*
X329432D01*
Y675952D01*
X330373D01*
Y672048D01*
X329432D01*
Y663952D01*
X330373D01*
Y654996D01*
X330497Y654372D01*
X330850Y653842D01*
X335846Y648846D01*
X336376Y648493D01*
X337000Y648369D01*
X361563D01*
X361681Y648084D01*
X362290Y647290D01*
X363084Y646681D01*
X364008Y646298D01*
X365000Y646167D01*
X365992Y646298D01*
X366916Y646681D01*
X367710Y647290D01*
X368319Y648084D01*
X368702Y649008D01*
X368833Y650000D01*
X368702Y650992D01*
X368319Y651916D01*
X367710Y652710D01*
X366916Y653319D01*
X365992Y653702D01*
X365000Y653833D01*
X364008Y653702D01*
X363084Y653319D01*
X362290Y652710D01*
X361681Y651916D01*
X361563Y651631D01*
X337676D01*
X333635Y655672D01*
Y663952D01*
X334576D01*
Y672048D01*
X333635D01*
Y675952D01*
X334576D01*
Y684048D01*
D02*
G37*
G36*
X266500Y646228D02*
X264776D01*
Y645055D01*
X264945Y644204D01*
X265427Y643483D01*
X266149Y643001D01*
X266500Y642931D01*
Y646228D01*
D02*
G37*
G36*
Y650526D02*
X266149Y650456D01*
X265427Y649974D01*
X264945Y649253D01*
X264776Y648402D01*
Y647228D01*
X266500D01*
Y650526D01*
D02*
G37*
G36*
X394500Y659500D02*
X391031D01*
X391103Y658956D01*
X391506Y657983D01*
X392147Y657147D01*
X392983Y656506D01*
X393956Y656103D01*
X394500Y656031D01*
Y659500D01*
D02*
G37*
G36*
X418048Y662568D02*
X409952D01*
Y657424D01*
X412369D01*
Y651506D01*
X411260Y651047D01*
X411154Y651154D01*
X410624Y651507D01*
X410000Y651631D01*
X398437D01*
X398319Y651916D01*
X397710Y652710D01*
X396916Y653319D01*
X395992Y653702D01*
X395000Y653833D01*
X394008Y653702D01*
X393084Y653319D01*
X392290Y652710D01*
X391681Y651916D01*
X391563Y651631D01*
X388000D01*
X387376Y651507D01*
X386846Y651154D01*
X375847Y640154D01*
X375493Y639624D01*
X375369Y639000D01*
Y584676D01*
X366328Y575635D01*
X362048D01*
Y576576D01*
X353952D01*
Y571432D01*
X362048D01*
Y572373D01*
X367004D01*
X367628Y572497D01*
X368158Y572850D01*
X378153Y582846D01*
X378507Y583376D01*
X378631Y584000D01*
Y638324D01*
X388676Y648369D01*
X391563D01*
X391681Y648084D01*
X392290Y647290D01*
X393084Y646681D01*
X394008Y646298D01*
X395000Y646167D01*
X395992Y646298D01*
X396916Y646681D01*
X397710Y647290D01*
X398319Y648084D01*
X398437Y648369D01*
X409324D01*
X412369Y645324D01*
Y642576D01*
X409952D01*
Y637432D01*
X418048D01*
Y642576D01*
X415631D01*
Y646000D01*
Y657424D01*
X418048D01*
Y662568D01*
D02*
G37*
G36*
X368969Y639500D02*
X365500D01*
Y636031D01*
X366044Y636103D01*
X367017Y636506D01*
X367853Y637147D01*
X368494Y637983D01*
X368897Y638956D01*
X368969Y639500D01*
D02*
G37*
G36*
X364500D02*
X361031D01*
X361103Y638956D01*
X361506Y637983D01*
X362147Y637147D01*
X362983Y636506D01*
X363956Y636103D01*
X364500Y636031D01*
Y639500D01*
D02*
G37*
G36*
X395000Y643833D02*
X394008Y643702D01*
X393084Y643319D01*
X392290Y642710D01*
X391681Y641916D01*
X391298Y640992D01*
X391167Y640000D01*
X391298Y639008D01*
X391681Y638084D01*
X392290Y637290D01*
X393084Y636681D01*
X394008Y636298D01*
X395000Y636167D01*
X395992Y636298D01*
X396916Y636681D01*
X397710Y637290D01*
X398319Y638084D01*
X398702Y639008D01*
X398833Y640000D01*
X398702Y640992D01*
X398319Y641916D01*
X397710Y642710D01*
X396916Y643319D01*
X395992Y643702D01*
X395000Y643833D01*
D02*
G37*
G36*
X365500Y643969D02*
Y640500D01*
X368969D01*
X368897Y641044D01*
X368494Y642017D01*
X367853Y642853D01*
X367017Y643494D01*
X366044Y643897D01*
X365500Y643969D01*
D02*
G37*
G36*
X364500D02*
X363956Y643897D01*
X362983Y643494D01*
X362147Y642853D01*
X361506Y642017D01*
X361103Y641044D01*
X361031Y640500D01*
X364500D01*
Y643969D01*
D02*
G37*
%LPD*%
D10*
X318000Y561996D02*
D03*
Y574004D02*
D03*
X336000Y574004D02*
D03*
Y561996D02*
D03*
X290000Y574004D02*
D03*
Y561996D02*
D03*
X358000Y574004D02*
D03*
Y561996D02*
D03*
X414000Y672004D02*
D03*
Y659996D02*
D03*
Y627996D02*
D03*
Y640004D02*
D03*
D11*
X319996Y680000D02*
D03*
X332004D02*
D03*
X319996Y668000D02*
D03*
X332004D02*
D03*
X314000Y640000D02*
D03*
X326008D02*
D03*
X326004Y628000D02*
D03*
X313996D02*
D03*
X242004Y608000D02*
D03*
X229996D02*
D03*
X251996Y678000D02*
D03*
X264004D02*
D03*
D12*
X267000Y625272D02*
D03*
X272000D02*
D03*
X277000D02*
D03*
X282000D02*
D03*
X287000D02*
D03*
X292000D02*
D03*
X297000D02*
D03*
X267000Y646728D02*
D03*
X272000D02*
D03*
X277000D02*
D03*
X282000D02*
D03*
X287000D02*
D03*
X292000D02*
D03*
X297000D02*
D03*
D13*
X253839Y584000D02*
D03*
X246161D02*
D03*
X253839Y566000D02*
D03*
X246161D02*
D03*
D14*
X275047Y670000D02*
D03*
X280953D02*
D03*
D15*
X300000Y585047D02*
D03*
Y590953D02*
D03*
X314000Y585047D02*
D03*
Y590953D02*
D03*
X328000Y585047D02*
D03*
Y590953D02*
D03*
D16*
X358000Y574004D02*
X367004D01*
X377000Y584000D01*
Y639000D01*
X388000Y650000D01*
X395000D01*
X308000Y606000D02*
X314000Y600000D01*
X365000Y670000D02*
X374000D01*
X392000Y688000D01*
X406000D01*
X414000Y680000D01*
Y672004D02*
Y680000D01*
X332004Y654996D02*
Y668000D01*
Y654996D02*
X337000Y650000D01*
X365000D01*
X326004Y622996D02*
Y628000D01*
Y622996D02*
X329000Y620000D01*
X365000D01*
X326008Y628004D02*
Y640000D01*
X414000Y646000D02*
Y659996D01*
Y640004D02*
Y646000D01*
X410000Y650000D02*
X414000Y646000D01*
X395000Y650000D02*
X410000D01*
X414000Y624000D02*
Y627996D01*
X410000Y620000D02*
X414000Y624000D01*
X395000Y620000D02*
X410000D01*
X358000Y552000D02*
Y561996D01*
X348961Y542961D02*
X358000Y552000D01*
X318063Y542961D02*
X348961D01*
X272000Y599685D02*
Y625272D01*
Y580000D02*
X277000Y585000D01*
Y625272D01*
X258000Y566000D02*
X272000Y580000D01*
X282000Y608000D02*
Y625272D01*
Y608000D02*
X286000Y604000D01*
X282000Y646728D02*
Y652000D01*
X264000Y670000D02*
X282000Y652000D01*
X220000Y670000D02*
X264000D01*
X220000Y650000D02*
X226000Y656000D01*
X272000Y646728D02*
Y652000D01*
X268000Y656000D02*
X272000Y652000D01*
X226000Y656000D02*
X268000D01*
X277000Y643000D02*
Y646728D01*
X274000Y640000D02*
X277000Y643000D01*
X220000Y640000D02*
X274000D01*
X220000Y630000D02*
X226000Y636000D01*
X280000D01*
X287000Y643000D01*
Y646728D01*
X292000D02*
Y652000D01*
X302000Y662000D01*
X308000D01*
X292000Y618000D02*
Y625272D01*
X297000Y646728D02*
Y653000D01*
X300000Y656000D01*
Y590953D02*
Y594000D01*
X296000Y598000D02*
X300000Y594000D01*
X296000Y598000D02*
Y606000D01*
X290000Y612000D02*
X296000Y606000D01*
X272000Y670000D02*
X275047D01*
X270000Y672000D02*
X272000Y670000D01*
X264004Y678000D02*
X268000D01*
X270000Y676000D01*
Y672000D02*
Y676000D01*
X294000Y670000D02*
X296000Y668000D01*
X280953Y670000D02*
X294000D01*
X296000Y664000D02*
Y668000D01*
X300000Y656000D02*
X310000D01*
X314000Y652000D01*
Y640000D02*
Y652000D01*
X308000Y662000D02*
Y678000D01*
X310000Y680000D01*
X319996D01*
X297000Y621000D02*
Y625272D01*
Y621000D02*
X302000Y616000D01*
X258000Y614000D02*
X262000D01*
X267000Y619000D01*
Y625272D01*
X249039Y542961D02*
X268299D01*
X314000Y590953D02*
Y596000D01*
X292000Y618000D02*
X314000Y596000D01*
Y600000D02*
X322000D01*
X328000Y594000D01*
Y590953D02*
Y594000D01*
X308953Y590953D02*
X314000D01*
X306000Y588000D02*
X308953Y590953D01*
X306000Y570000D02*
Y588000D01*
X298000Y562000D02*
X306000Y570000D01*
X298000Y523102D02*
Y562000D01*
Y523102D02*
X308063Y513039D01*
X268299D02*
Y542961D01*
X328000Y585047D02*
X332953D01*
X336000Y582000D01*
Y574004D02*
Y582000D01*
X290000Y574004D02*
Y582000D01*
X293047Y585047D01*
X300000D01*
X314000Y582000D02*
Y585047D01*
Y582000D02*
X318000Y578000D01*
Y574004D02*
Y578000D01*
X332004Y668000D02*
Y680000D01*
X308000Y606000D02*
Y638000D01*
X310000Y640000D01*
X314000D01*
X253839Y566000D02*
X258000D01*
X253839Y584000D02*
Y591839D01*
X261685Y599685D01*
X272000D01*
X220000Y530000D02*
X229000D01*
X220000Y560000D02*
X228000D01*
X229000Y530000D02*
X235224Y536224D01*
Y552776D01*
X228000Y560000D02*
X235224Y552776D01*
X220000Y570000D02*
X228000D01*
X229000Y563000D02*
X249039Y542961D01*
X229000Y563000D02*
Y569000D01*
X228000Y570000D02*
X229000Y569000D01*
X216000Y608000D02*
X229996D01*
X252000D02*
X258000Y614000D01*
X242004Y608000D02*
X252000D01*
D17*
X326004Y628000D02*
X326008Y628004D01*
X433071Y488189D02*
Y724409D01*
X196850Y488189D02*
X433071D01*
X196850D02*
Y724409D01*
X433071D01*
D18*
X365000Y600000D02*
D03*
X395000D02*
D03*
X365000Y680000D02*
D03*
X395000D02*
D03*
X365000Y610000D02*
D03*
X395000D02*
D03*
X365000Y620000D02*
D03*
X395000D02*
D03*
X365000Y670000D02*
D03*
X395000D02*
D03*
X365000Y660000D02*
D03*
X395000D02*
D03*
X365000Y650000D02*
D03*
X395000D02*
D03*
X365000Y630000D02*
D03*
X395000D02*
D03*
Y640000D02*
D03*
X365000D02*
D03*
X272000Y599685D02*
D03*
Y580000D02*
D03*
X318063Y542961D02*
D03*
X308063D02*
D03*
Y513039D02*
D03*
X318063D02*
D03*
X268299D02*
D03*
Y542961D02*
D03*
X220000Y670000D02*
D03*
Y660000D02*
D03*
Y650000D02*
D03*
Y640000D02*
D03*
Y630000D02*
D03*
Y620000D02*
D03*
Y560000D02*
D03*
Y530000D02*
D03*
D19*
Y680000D02*
D03*
Y570000D02*
D03*
Y540000D02*
D03*
D20*
X286000Y604000D02*
D03*
X308000Y662000D02*
D03*
X290000Y612000D02*
D03*
X296000Y664000D02*
D03*
X302000Y616000D02*
D03*
X258000Y614000D02*
D03*
X216000Y608000D02*
D03*
M02*
