G04 Layer_Physical_Order=2*
G04 Layer_Color=16711680*
%FSLAX25Y25*%
%MOIN*%
G70*
G01*
G75*
%ADD16C,0.01600*%
%ADD17C,0.00800*%
%ADD18C,0.06000*%
%ADD19R,0.06000X0.06000*%
%ADD20C,0.05000*%
D16*
X395000Y600000D02*
X400000D01*
X404000Y604000D01*
Y626000D01*
X400000Y630000D02*
X404000Y626000D01*
X395000Y630000D02*
X400000D01*
X369000Y686000D02*
X385000Y670000D01*
X358000Y686000D02*
X369000D01*
X336500Y664500D02*
X358000Y686000D01*
X385000Y670000D02*
X395000D01*
X336500Y645500D02*
Y664500D01*
X302000Y616000D02*
X307000D01*
X336500Y645500D01*
X374000Y572000D02*
Y671000D01*
X337000Y535000D02*
X374000Y572000D01*
X276260Y535000D02*
X337000D01*
X338000Y532000D02*
X395000Y589000D01*
X254000Y532000D02*
X338000D01*
X395000Y589000D02*
Y600000D01*
X268299Y542961D02*
X276260Y535000D01*
X306400Y529600D02*
X318063Y517937D01*
X252400Y529600D02*
X306400D01*
X226000Y560000D02*
X254000Y532000D01*
X242000Y540000D02*
X252400Y529600D01*
X365000Y680000D02*
X374000Y671000D01*
X220000Y560000D02*
X226000D01*
X220000Y540000D02*
X242000D01*
X212000Y678000D02*
X214000Y680000D01*
X220000Y660000D02*
X226000Y666000D01*
X258000Y620000D02*
X296000Y658000D01*
X290000Y612000D02*
Y644000D01*
X308000Y662000D01*
X296000Y658000D02*
Y664000D01*
X258000Y614000D02*
Y620000D01*
X212000Y608000D02*
Y678000D01*
X214000Y680000D02*
X220000D01*
X212000Y608000D02*
X216000D01*
X282000D01*
X286000Y604000D01*
X226000Y666000D02*
X294000D01*
X296000Y664000D01*
X318063Y513039D02*
Y517937D01*
D17*
X433071Y488189D02*
Y724409D01*
X196850Y488189D02*
X433071D01*
X196850D02*
Y724409D01*
X433071D01*
D18*
X365000Y600000D02*
D03*
X395000D02*
D03*
X365000Y680000D02*
D03*
X395000D02*
D03*
X365000Y610000D02*
D03*
X395000D02*
D03*
X365000Y620000D02*
D03*
X395000D02*
D03*
X365000Y670000D02*
D03*
X395000D02*
D03*
X365000Y660000D02*
D03*
X395000D02*
D03*
X365000Y650000D02*
D03*
X395000D02*
D03*
X365000Y630000D02*
D03*
X395000D02*
D03*
Y640000D02*
D03*
X365000D02*
D03*
X272000Y599685D02*
D03*
Y580000D02*
D03*
X318063Y542961D02*
D03*
X308063D02*
D03*
Y513039D02*
D03*
X318063D02*
D03*
X268299D02*
D03*
Y542961D02*
D03*
X220000Y670000D02*
D03*
Y660000D02*
D03*
Y650000D02*
D03*
Y640000D02*
D03*
Y630000D02*
D03*
Y620000D02*
D03*
Y560000D02*
D03*
Y530000D02*
D03*
D19*
Y680000D02*
D03*
Y570000D02*
D03*
Y540000D02*
D03*
D20*
X286000Y604000D02*
D03*
X308000Y662000D02*
D03*
X290000Y612000D02*
D03*
X296000Y664000D02*
D03*
X302000Y616000D02*
D03*
X258000Y614000D02*
D03*
X216000Y608000D02*
D03*
M02*
