G04 Layer_Color=65535*
%FSLAX25Y25*%
%MOIN*%
G70*
G01*
G75*
%ADD17C,0.00800*%
%ADD21C,0.01000*%
%ADD22C,0.00984*%
%ADD23C,0.02362*%
%ADD24C,0.00394*%
%ADD25C,0.00100*%
%ADD26C,0.00787*%
D17*
X433071Y488189D02*
Y724409D01*
X196850Y488189D02*
X433071D01*
X196850D02*
Y724409D01*
X433071D01*
D21*
X279874Y603622D02*
X279114Y604315D01*
X278293Y604935D01*
X277419Y605476D01*
X276498Y605935D01*
X275539Y606306D01*
X274550Y606588D01*
X273538Y606777D01*
X272514Y606872D01*
X271486D01*
X270462Y606777D01*
X269450Y606588D01*
X268461Y606306D01*
X267502Y605935D01*
X266581Y605476D01*
X265707Y604935D01*
X264886Y604315D01*
X264126Y603622D01*
Y576063D02*
X264886Y575370D01*
X265707Y574750D01*
X266581Y574209D01*
X267502Y573750D01*
X268461Y573379D01*
X269450Y573097D01*
X270462Y572908D01*
X271486Y572813D01*
X272514D01*
X273538Y572908D01*
X274550Y573097D01*
X275539Y573379D01*
X276498Y573750D01*
X277419Y574209D01*
X278293Y574750D01*
X279114Y575370D01*
X279874Y576063D01*
X400000Y660000D02*
X405000D01*
Y680000D01*
X400000D02*
X405000D01*
X355000Y660000D02*
X360000D01*
X355000D02*
Y680000D01*
X360000D01*
X400000Y630000D02*
X405000D01*
Y650000D01*
X400000D02*
X405000D01*
X400000Y600000D02*
X405000D01*
Y620000D01*
X400000D02*
X405000D01*
X355000Y600000D02*
X360000D01*
X355000D02*
Y620000D01*
X360000D01*
X355000Y630000D02*
X360000D01*
X355000D02*
Y650000D01*
X360000D01*
Y595000D02*
Y685000D01*
X400000D01*
Y595000D02*
Y685000D01*
X360000Y595000D02*
X400000D01*
X264126Y596732D02*
Y603622D01*
Y576063D02*
Y596732D01*
X279874Y576063D02*
Y603622D01*
X262000Y508000D02*
X324500D01*
X262000D02*
Y548000D01*
X324500D01*
Y508000D02*
Y548000D01*
X215000Y615000D02*
X225000D01*
Y685000D01*
X215000D02*
X225000D01*
X215000Y615000D02*
Y685000D01*
Y555000D02*
Y575000D01*
X225000D01*
Y555000D02*
Y575000D01*
X215000Y555000D02*
X225000D01*
X215000Y525000D02*
Y545000D01*
X225000D01*
Y525000D02*
Y545000D01*
X215000Y525000D02*
X225000D01*
X269000Y710596D02*
X270999D01*
X270000D01*
Y704598D01*
X269000D01*
X270999D01*
X273998D02*
Y708596D01*
X276997D01*
X277997Y707597D01*
Y704598D01*
X280996Y709596D02*
Y708596D01*
X279996D01*
X281996D01*
X280996D01*
Y705597D01*
X281996Y704598D01*
X287994D02*
X285995D01*
X284995Y705597D01*
Y707597D01*
X285995Y708596D01*
X287994D01*
X288994Y707597D01*
Y706597D01*
X284995D01*
X290993Y708596D02*
Y704598D01*
Y706597D01*
X291993Y707597D01*
X292992Y708596D01*
X293992D01*
X300990D02*
X297991D01*
X296991Y707597D01*
Y705597D01*
X297991Y704598D01*
X300990D01*
X303989D02*
X305988D01*
X306988Y705597D01*
Y707597D01*
X305988Y708596D01*
X303989D01*
X302989Y707597D01*
Y705597D01*
X303989Y704598D01*
X308987D02*
Y708596D01*
X309987D01*
X310986Y707597D01*
Y704598D01*
Y707597D01*
X311986Y708596D01*
X312986Y707597D01*
Y704598D01*
X320983Y708596D02*
X322983Y704598D01*
X324982Y708596D01*
X326981Y704598D02*
Y705597D01*
X327981D01*
Y704598D01*
X326981D01*
X331980D02*
X333979D01*
X332979D01*
Y710596D01*
X331980Y709596D01*
X336978Y704598D02*
Y705597D01*
X337978D01*
Y704598D01*
X336978D01*
X341976Y709596D02*
X342976Y710596D01*
X344975D01*
X345975Y709596D01*
Y705597D01*
X344975Y704598D01*
X342976D01*
X341976Y705597D01*
Y709596D01*
X269000Y695000D02*
Y700998D01*
X272999Y695000D01*
Y700998D01*
X275998Y695000D02*
X277997D01*
X278997Y696000D01*
Y697999D01*
X277997Y698999D01*
X275998D01*
X274998Y697999D01*
Y696000D01*
X275998Y695000D01*
X280996Y698999D02*
X282996Y695000D01*
X284995Y698999D01*
X289993Y695000D02*
X287994D01*
X286994Y696000D01*
Y697999D01*
X287994Y698999D01*
X289993D01*
X290993Y697999D01*
Y696999D01*
X286994D01*
X292992Y695000D02*
Y698999D01*
X293992D01*
X294992Y697999D01*
Y695000D01*
Y697999D01*
X295991Y698999D01*
X296991Y697999D01*
Y695000D01*
X298990Y700998D02*
Y695000D01*
X301989D01*
X302989Y696000D01*
Y696999D01*
Y697999D01*
X301989Y698999D01*
X298990D01*
X307987Y695000D02*
X305988D01*
X304988Y696000D01*
Y697999D01*
X305988Y698999D01*
X307987D01*
X308987Y697999D01*
Y696999D01*
X304988D01*
X310986Y698999D02*
Y695000D01*
Y696999D01*
X311986Y697999D01*
X312986Y698999D01*
X313985D01*
X326981Y695000D02*
X322983D01*
X326981Y698999D01*
Y699998D01*
X325982Y700998D01*
X323982D01*
X322983Y699998D01*
X328981D02*
X329980Y700998D01*
X331980D01*
X332979Y699998D01*
Y696000D01*
X331980Y695000D01*
X329980D01*
X328981Y696000D01*
Y699998D01*
X334979Y695000D02*
X336978D01*
X335978D01*
Y700998D01*
X334979Y699998D01*
X339977D02*
X340977Y700998D01*
X342976D01*
X343976Y699998D01*
Y698999D01*
X342976Y697999D01*
X343976Y696999D01*
Y696000D01*
X342976Y695000D01*
X340977D01*
X339977Y696000D01*
Y696999D01*
X340977Y697999D01*
X339977Y698999D01*
Y699998D01*
X340977Y697999D02*
X342976D01*
X249499Y576498D02*
X248499Y577498D01*
X246500D01*
X245500Y576498D01*
Y572500D01*
X246500Y571500D01*
X248499D01*
X249499Y572500D01*
X251498Y571500D02*
X253497D01*
X252498D01*
Y577498D01*
X251498Y576498D01*
X249499Y594998D02*
X248499Y595998D01*
X246500D01*
X245500Y594998D01*
Y591000D01*
X246500Y590000D01*
X248499D01*
X249499Y591000D01*
X255497Y590000D02*
X251498D01*
X255497Y593999D01*
Y594998D01*
X254497Y595998D01*
X252498D01*
X251498Y594998D01*
X266000Y659998D02*
X267999D01*
X267000D01*
Y654000D01*
X266000D01*
X267999D01*
X274997Y658998D02*
X273997Y659998D01*
X271998D01*
X270998Y658998D01*
Y655000D01*
X271998Y654000D01*
X273997D01*
X274997Y655000D01*
X276996Y654000D02*
X278996D01*
X277996D01*
Y659998D01*
X276996Y658998D01*
X355450Y694448D02*
X357449D01*
X356450D01*
Y688450D01*
X355450D01*
X357449D01*
X364447Y693448D02*
X363447Y694448D01*
X361448D01*
X360448Y693448D01*
Y689450D01*
X361448Y688450D01*
X363447D01*
X364447Y689450D01*
X370445Y688450D02*
X366446D01*
X370445Y692449D01*
Y693448D01*
X369445Y694448D01*
X367446D01*
X366446Y693448D01*
X212500Y647500D02*
X206502D01*
X208501Y649499D01*
X206502Y651499D01*
X212500D01*
X206502Y653498D02*
X211500D01*
X212500Y654498D01*
Y656497D01*
X211500Y657497D01*
X206502D01*
X212500Y659496D02*
Y661495D01*
Y660496D01*
X206502D01*
X207502Y659496D01*
X206002Y560000D02*
Y561999D01*
Y561000D01*
X212000D01*
Y560000D01*
Y561999D01*
Y564998D02*
X206002D01*
X212000Y568997D01*
X206002D01*
Y529999D02*
Y528000D01*
X207002Y527000D01*
X211000D01*
X212000Y528000D01*
Y529999D01*
X211000Y530999D01*
X207002D01*
X206002Y529999D01*
Y532998D02*
X211000D01*
X212000Y533998D01*
Y535997D01*
X211000Y536997D01*
X206002D01*
Y538996D02*
Y542995D01*
Y540996D01*
X212000D01*
X268599Y611400D02*
Y615398D01*
X267599Y616398D01*
X265600D01*
X264600Y615398D01*
Y611400D01*
X265600Y610400D01*
X267599D01*
X266599Y612399D02*
X268599Y610400D01*
X267599D02*
X268599Y611400D01*
X270598Y610400D02*
X272597D01*
X271598D01*
Y616398D01*
X270598Y615398D01*
X337000Y677000D02*
Y682998D01*
X339999D01*
X340999Y681998D01*
Y679999D01*
X339999Y678999D01*
X337000D01*
X338999D02*
X340999Y677000D01*
X342998D02*
X344997D01*
X343998D01*
Y682998D01*
X342998Y681998D01*
X336500Y665000D02*
Y670998D01*
X339499D01*
X340499Y669998D01*
Y667999D01*
X339499Y666999D01*
X336500D01*
X338499D02*
X340499Y665000D01*
X346497D02*
X342498D01*
X346497Y668999D01*
Y669998D01*
X345497Y670998D01*
X343498D01*
X342498Y669998D01*
X331500Y637000D02*
Y642998D01*
X334499D01*
X335499Y641998D01*
Y639999D01*
X334499Y638999D01*
X331500D01*
X333499D02*
X335499Y637000D01*
X337498Y641998D02*
X338498Y642998D01*
X340497D01*
X341497Y641998D01*
Y640999D01*
X340497Y639999D01*
X339497D01*
X340497D01*
X341497Y638999D01*
Y638000D01*
X340497Y637000D01*
X338498D01*
X337498Y638000D01*
X331496Y625000D02*
Y630998D01*
X334495D01*
X335495Y629998D01*
Y627999D01*
X334495Y626999D01*
X331496D01*
X333495D02*
X335495Y625000D01*
X340493D02*
Y630998D01*
X337494Y627999D01*
X341493D01*
X365135Y574048D02*
X371133D01*
Y571049D01*
X370134Y570049D01*
X368134D01*
X367135Y571049D01*
Y574048D01*
Y572049D02*
X365135Y570049D01*
X371133Y564051D02*
Y568050D01*
X368134D01*
X369134Y566051D01*
Y565051D01*
X368134Y564051D01*
X366135D01*
X365135Y565051D01*
Y567050D01*
X366135Y568050D01*
X409000Y645000D02*
Y650998D01*
X411999D01*
X412999Y649998D01*
Y647999D01*
X411999Y646999D01*
X409000D01*
X410999D02*
X412999Y645000D01*
X418997Y650998D02*
X416997Y649998D01*
X414998Y647999D01*
Y646000D01*
X415998Y645000D01*
X417997D01*
X418997Y646000D01*
Y646999D01*
X417997Y647999D01*
X414998D01*
X409500Y676500D02*
Y682498D01*
X412499D01*
X413499Y681498D01*
Y679499D01*
X412499Y678499D01*
X409500D01*
X411499D02*
X413499Y676500D01*
X415498Y682498D02*
X419497D01*
Y681498D01*
X415498Y677500D01*
Y676500D01*
X262500Y551500D02*
Y557498D01*
X265499D01*
X266499Y556498D01*
Y554499D01*
X265499Y553499D01*
X262500D01*
X264499D02*
X266499Y551500D01*
X268498Y557498D02*
Y551500D01*
X272497D01*
X274496D02*
X276496D01*
X275496D01*
Y557498D01*
X274496Y556498D01*
X253000Y684000D02*
Y689998D01*
X255999D01*
X256999Y688998D01*
Y686999D01*
X255999Y685999D01*
X253000D01*
X254999D02*
X256999Y684000D01*
X258998Y688998D02*
X259998Y689998D01*
X261997D01*
X262997Y688998D01*
Y687999D01*
X261997Y686999D01*
X262997Y685999D01*
Y685000D01*
X261997Y684000D01*
X259998D01*
X258998Y685000D01*
Y685999D01*
X259998Y686999D01*
X258998Y687999D01*
Y688998D01*
X259998Y686999D02*
X261997D01*
X323500Y573000D02*
X329498D01*
Y570001D01*
X328498Y569001D01*
X326499D01*
X325499Y570001D01*
Y573000D01*
Y571001D02*
X323500Y569001D01*
X324500Y567002D02*
X323500Y566002D01*
Y564003D01*
X324500Y563003D01*
X328498D01*
X329498Y564003D01*
Y566002D01*
X328498Y567002D01*
X327499D01*
X326499Y566002D01*
Y563003D01*
X342500Y575500D02*
X348498D01*
Y572501D01*
X347498Y571501D01*
X345499D01*
X344499Y572501D01*
Y575500D01*
Y573501D02*
X342500Y571501D01*
Y569502D02*
Y567503D01*
Y568502D01*
X348498D01*
X347498Y569502D01*
Y564504D02*
X348498Y563504D01*
Y561505D01*
X347498Y560505D01*
X343500D01*
X342500Y561505D01*
Y563504D01*
X343500Y564504D01*
X347498D01*
X296000Y574500D02*
X301998D01*
Y571501D01*
X300998Y570501D01*
X298999D01*
X297999Y571501D01*
Y574500D01*
Y572501D02*
X296000Y570501D01*
Y568502D02*
Y566503D01*
Y567502D01*
X301998D01*
X300998Y568502D01*
X296000Y563504D02*
Y561504D01*
Y562504D01*
X301998D01*
X300998Y563504D01*
X274000Y680998D02*
Y675000D01*
X276999D01*
X277999Y676000D01*
Y679998D01*
X276999Y680998D01*
X274000D01*
X279998Y675000D02*
X281997D01*
X280998D01*
Y680998D01*
X279998Y679998D01*
X295500Y602498D02*
Y596500D01*
X298499D01*
X299499Y597500D01*
Y601498D01*
X298499Y602498D01*
X295500D01*
X305497Y596500D02*
X301498D01*
X305497Y600499D01*
Y601498D01*
X304497Y602498D01*
X302498D01*
X301498Y601498D01*
X323500Y602498D02*
Y596500D01*
X326499D01*
X327499Y597500D01*
Y601498D01*
X326499Y602498D01*
X323500D01*
X329498Y601498D02*
X330498Y602498D01*
X332497D01*
X333497Y601498D01*
Y600499D01*
X332497Y599499D01*
X331497D01*
X332497D01*
X333497Y598499D01*
Y597500D01*
X332497Y596500D01*
X330498D01*
X329498Y597500D01*
X310000Y602498D02*
Y596500D01*
X312999D01*
X313999Y597500D01*
Y601498D01*
X312999Y602498D01*
X310000D01*
X318997Y596500D02*
Y602498D01*
X315998Y599499D01*
X319997D01*
X228500Y596500D02*
Y602498D01*
X231499D01*
X232499Y601498D01*
Y599499D01*
X231499Y598499D01*
X228500D01*
X230499D02*
X232499Y596500D01*
X234498D02*
X236497D01*
X235498D01*
Y602498D01*
X234498Y601498D01*
X243495Y596500D02*
X239496D01*
X243495Y600499D01*
Y601498D01*
X242495Y602498D01*
X240496D01*
X239496Y601498D01*
X383000Y630000D02*
X377002D01*
Y632999D01*
X378002Y633999D01*
X380001D01*
X381001Y632999D01*
Y630000D01*
Y631999D02*
X383000Y633999D01*
X377002Y639997D02*
Y635998D01*
X383000D01*
Y639997D01*
X380001Y635998D02*
Y637997D01*
X377002Y641996D02*
X383000D01*
Y645995D01*
Y651993D02*
Y647994D01*
X379001Y651993D01*
X378002D01*
X377002Y650993D01*
Y648994D01*
X378002Y647994D01*
X377002Y662999D02*
Y661000D01*
X378002Y660000D01*
X382000D01*
X383000Y661000D01*
Y662999D01*
X382000Y663999D01*
X378002D01*
X377002Y662999D01*
X383000Y665998D02*
X377002D01*
Y668997D01*
X378002Y669997D01*
X380001D01*
X381001Y668997D01*
Y665998D01*
X377002Y671996D02*
Y675995D01*
Y673995D01*
X383000D01*
X377002Y677994D02*
Y679993D01*
Y678994D01*
X383000D01*
Y677994D01*
Y679993D01*
Y600000D02*
X377002D01*
Y602999D01*
X378002Y603999D01*
X380001D01*
X381001Y602999D01*
Y600000D01*
Y601999D02*
X383000Y603999D01*
X377002Y609997D02*
Y605998D01*
X383000D01*
Y609997D01*
X380001Y605998D02*
Y607997D01*
X377002Y611996D02*
X383000D01*
Y615995D01*
Y617994D02*
Y619993D01*
Y618994D01*
X377002D01*
X378002Y617994D01*
X231499Y622498D02*
X230499Y623498D01*
X228500D01*
X227500Y622498D01*
Y618500D01*
X228500Y617500D01*
X230499D01*
X231499Y618500D01*
Y620499D01*
X229499D01*
X233498Y617500D02*
Y623498D01*
X237497Y617500D01*
Y623498D01*
X239496D02*
Y617500D01*
X242495D01*
X243495Y618500D01*
Y622498D01*
X242495Y623498D01*
X239496D01*
X231499Y632498D02*
X230499Y633498D01*
X228500D01*
X227500Y632498D01*
Y631499D01*
X228500Y630499D01*
X230499D01*
X231499Y629499D01*
Y628500D01*
X230499Y627500D01*
X228500D01*
X227500Y628500D01*
X237497Y632498D02*
X236497Y633498D01*
X234498D01*
X233498Y632498D01*
Y628500D01*
X234498Y627500D01*
X236497D01*
X237497Y628500D01*
X239496Y633498D02*
Y627500D01*
Y629499D01*
X243495Y633498D01*
X240496Y630499D01*
X243495Y627500D01*
X227500Y637500D02*
Y643498D01*
X229499Y641499D01*
X231499Y643498D01*
Y637500D01*
X236497Y643498D02*
X234498D01*
X233498Y642498D01*
Y638500D01*
X234498Y637500D01*
X236497D01*
X237497Y638500D01*
Y642498D01*
X236497Y643498D01*
X243495Y642498D02*
X242495Y643498D01*
X240496D01*
X239496Y642498D01*
Y641499D01*
X240496Y640499D01*
X242495D01*
X243495Y639499D01*
Y638500D01*
X242495Y637500D01*
X240496D01*
X239496Y638500D01*
X245494Y643498D02*
X247494D01*
X246494D01*
Y637500D01*
X245494D01*
X247494D01*
X227500Y647500D02*
Y653498D01*
X229499Y651499D01*
X231499Y653498D01*
Y647500D01*
X233498Y653498D02*
X235497D01*
X234498D01*
Y647500D01*
X233498D01*
X235497D01*
X242495Y652498D02*
X241495Y653498D01*
X239496D01*
X238496Y652498D01*
Y651499D01*
X239496Y650499D01*
X241495D01*
X242495Y649499D01*
Y648500D01*
X241495Y647500D01*
X239496D01*
X238496Y648500D01*
X247494Y653498D02*
X245494D01*
X244495Y652498D01*
Y648500D01*
X245494Y647500D01*
X247494D01*
X248493Y648500D01*
Y652498D01*
X247494Y653498D01*
X227500Y663498D02*
Y659499D01*
X229499Y657500D01*
X231499Y659499D01*
Y663498D01*
X237497Y662498D02*
X236497Y663498D01*
X234498D01*
X233498Y662498D01*
Y658500D01*
X234498Y657500D01*
X236497D01*
X237497Y658500D01*
X243495Y662498D02*
X242495Y663498D01*
X240496D01*
X239496Y662498D01*
Y658500D01*
X240496Y657500D01*
X242495D01*
X243495Y658500D01*
X231499Y672498D02*
X230499Y673498D01*
X228500D01*
X227500Y672498D01*
Y671499D01*
X228500Y670499D01*
X230499D01*
X231499Y669499D01*
Y668500D01*
X230499Y667500D01*
X228500D01*
X227500Y668500D01*
X237497Y672498D02*
X236497Y673498D01*
X234498D01*
X233498Y672498D01*
Y671499D01*
X234498Y670499D01*
X236497D01*
X237497Y669499D01*
Y668500D01*
X236497Y667500D01*
X234498D01*
X233498Y668500D01*
X227500Y677500D02*
Y683498D01*
X230499D01*
X231499Y682498D01*
Y680499D01*
X230499Y679499D01*
X227500D01*
X229499D02*
X231499Y677500D01*
X237497Y682498D02*
X236497Y683498D01*
X234498D01*
X233498Y682498D01*
Y681499D01*
X234498Y680499D01*
X236497D01*
X237497Y679499D01*
Y678500D01*
X236497Y677500D01*
X234498D01*
X233498Y678500D01*
X239496Y683498D02*
X243495D01*
X241495D01*
Y677500D01*
X216999Y692498D02*
X215999Y693498D01*
X214000D01*
X213000Y692498D01*
Y691499D01*
X214000Y690499D01*
X215999D01*
X216999Y689499D01*
Y688500D01*
X215999Y687500D01*
X214000D01*
X213000Y688500D01*
X218998Y687500D02*
Y693498D01*
X221997D01*
X222997Y692498D01*
Y690499D01*
X221997Y689499D01*
X218998D01*
X224996Y693498D02*
X226995D01*
X225996D01*
Y687500D01*
X224996D01*
X226995D01*
X228000Y569999D02*
X231999D01*
X229999Y571998D02*
Y568000D01*
X228000Y539999D02*
X231999D01*
X229999Y541998D02*
Y538000D01*
D22*
X264146Y625272D02*
X263407Y625698D01*
Y624845D01*
X264146Y625272D01*
D23*
X269992Y633638D02*
X269547Y634561D01*
X268548Y634789D01*
X267747Y634150D01*
Y633125D01*
X268548Y632486D01*
X269547Y632714D01*
X269992Y633638D01*
D24*
X283217Y666752D02*
D03*
X303445Y593020D02*
D03*
X317445D02*
D03*
X331445D02*
D03*
D25*
X386905Y555381D02*
X391005D01*
X385805Y555281D02*
X391905D01*
X384605Y555181D02*
X392805D01*
X383905Y555081D02*
X393305D01*
X383105Y554981D02*
X393905D01*
X382505Y554881D02*
X394305D01*
X381905Y554781D02*
X394805D01*
X381505Y554681D02*
X395205D01*
X381005Y554581D02*
X395605D01*
X380605Y554481D02*
X386705D01*
X391205D02*
X395905D01*
X380205Y554381D02*
X385905D01*
X391805D02*
X396305D01*
X379905Y554281D02*
X384505D01*
X392905D02*
X396605D01*
X370705Y554181D02*
X372205D01*
X379505D02*
X384105D01*
X393105D02*
X396905D01*
X370205Y554081D02*
X374105D01*
X379205D02*
X383005D01*
X393905D02*
X397105D01*
X369805Y553981D02*
X375805D01*
X378805D02*
X382805D01*
X394205D02*
X397405D01*
X369605Y553881D02*
X376705D01*
X378605D02*
X381905D01*
X394905D02*
X397605D01*
X369405Y553781D02*
X377905D01*
X378105D02*
X381705D01*
X395105D02*
X397905D01*
X369205Y553681D02*
X381005D01*
X395505D02*
X398105D01*
X369105Y553581D02*
X380805D01*
X395905D02*
X398305D01*
X369005Y553481D02*
X380705D01*
X396305D02*
X398505D01*
X368905Y553381D02*
X380905D01*
X396405D02*
X398705D01*
X368805Y553281D02*
X370505D01*
X373505D02*
X381505D01*
X396805D02*
X398905D01*
X368705Y553181D02*
X370105D01*
X375405D02*
X381905D01*
X396905D02*
X399105D01*
X368605Y553081D02*
X369905D01*
X376305D02*
X382505D01*
X397305D02*
X399205D01*
X368505Y552981D02*
X369705D01*
X377505D02*
X382705D01*
X397505D02*
X399505D01*
X400005D02*
X400405D01*
X368405Y552881D02*
X369605D01*
X378105D02*
X383305D01*
X397705D02*
X400705D01*
X368405Y552781D02*
X369505D01*
X379005D02*
X383505D01*
X397905D02*
X400905D01*
X368305Y552681D02*
X369305D01*
X379505D02*
X384005D01*
X398105D02*
X401005D01*
X368205Y552581D02*
X369305D01*
X380305D02*
X384105D01*
X398305D02*
X401105D01*
X368205Y552481D02*
X369205D01*
X380605D02*
X384405D01*
X398505D02*
X401205D01*
X368105Y552381D02*
X369105D01*
X381205D02*
X384505D01*
X398605D02*
X401305D01*
X368005Y552281D02*
X369105D01*
X381605D02*
X384705D01*
X398805D02*
X401405D01*
X368005Y552181D02*
X369005D01*
X382005D02*
X384805D01*
X398805D02*
X401405D01*
X368005Y552081D02*
X368905D01*
X382405D02*
X384905D01*
X398805D02*
X400005D01*
X400305D02*
X401405D01*
X367905Y551981D02*
X368805D01*
X382905D02*
X385005D01*
X398705D02*
X399905D01*
X400505D02*
X401505D01*
X367805Y551881D02*
X368805D01*
X373405D02*
X376005D01*
X383205D02*
X385105D01*
X398705D02*
X399805D01*
X400505D02*
X401505D01*
X367805Y551781D02*
X368705D01*
X373305D02*
X376705D01*
X383505D02*
X385205D01*
X398605D02*
X399705D01*
X400605D02*
X401605D01*
X367805Y551681D02*
X368705D01*
X373105D02*
X377805D01*
X383805D02*
X385305D01*
X398605D02*
X399705D01*
X400705D02*
X401605D01*
X367705Y551581D02*
X368605D01*
X373105D02*
X378205D01*
X384005D02*
X385305D01*
X398605D02*
X399605D01*
X400705D02*
X401605D01*
X367605Y551481D02*
X368605D01*
X373105D02*
X379005D01*
X384105D02*
X385405D01*
X398605D02*
X399705D01*
X400705D02*
X401605D01*
X367605Y551381D02*
X368505D01*
X373105D02*
X379205D01*
X384305D02*
X385505D01*
X398605D02*
X399705D01*
X400705D02*
X401605D01*
X367505Y551281D02*
X368505D01*
X373105D02*
X379805D01*
X384405D02*
X385505D01*
X398705D02*
X399705D01*
X400705D02*
X401705D01*
X367505Y551181D02*
X368405D01*
X373105D02*
X379905D01*
X384505D02*
X385605D01*
X398705D02*
X399805D01*
X400805D02*
X401705D01*
X367505Y551081D02*
X368405D01*
X373105D02*
X380105D01*
X384605D02*
X385705D01*
X398805D02*
X399805D01*
X400805D02*
X401705D01*
X367405Y550981D02*
X368305D01*
X373105D02*
X374005D01*
X375305D02*
X380205D01*
X384605D02*
X385705D01*
X398805D02*
X399805D01*
X400805D02*
X401805D01*
X367405Y550881D02*
X368305D01*
X373105D02*
X374005D01*
X376105D02*
X380205D01*
X384705D02*
X385705D01*
X398805D02*
X399905D01*
X400705D02*
X401905D01*
X367405Y550781D02*
X368305D01*
X373105D02*
X374005D01*
X377505D02*
X380205D01*
X384705D02*
X385805D01*
X398805D02*
X399905D01*
X400705D02*
X401905D01*
X367305Y550681D02*
X368205D01*
X373105D02*
X374005D01*
X377905D02*
X380205D01*
X384805D02*
X385805D01*
X398905D02*
X399905D01*
X400705D02*
X402005D01*
X367305Y550581D02*
X368205D01*
X373105D02*
X374005D01*
X378705D02*
X380205D01*
X384805D02*
X385905D01*
X398905D02*
X399905D01*
X400705D02*
X402105D01*
X367205Y550481D02*
X368105D01*
X373105D02*
X374005D01*
X379005D02*
X380205D01*
X384905D02*
X385905D01*
X398905D02*
X399905D01*
X400705D02*
X402205D01*
X367205Y550381D02*
X368105D01*
X373105D02*
X374005D01*
X379105D02*
X380205D01*
X384905D02*
X385905D01*
X398905D02*
X399905D01*
X400705D02*
X402205D01*
X367205Y550281D02*
X368005D01*
X373105D02*
X374005D01*
X379205D02*
X380105D01*
X385005D02*
X385905D01*
X398905D02*
X399905D01*
X400705D02*
X402305D01*
X367205Y550181D02*
X368005D01*
X373105D02*
X374005D01*
X379105D02*
X380105D01*
X385005D02*
X385905D01*
X398905D02*
X399905D01*
X400805D02*
X402405D01*
X367205Y550081D02*
X368005D01*
X373005D02*
X374005D01*
X379105D02*
X380105D01*
X385005D02*
X385905D01*
X399005D02*
X399805D01*
X400805D02*
X402405D01*
X367205Y549981D02*
X368005D01*
X373005D02*
X374005D01*
X379105D02*
X380105D01*
X385105D02*
X385905D01*
X399105D02*
X399805D01*
X400905D02*
X402505D01*
X367205Y549881D02*
X368005D01*
X373005D02*
X374005D01*
X379105D02*
X380005D01*
X385105D02*
X386005D01*
X399205D02*
X399605D01*
X401205D02*
X401405D01*
X401505D02*
X402605D01*
X367205Y549781D02*
X368005D01*
X373005D02*
X374005D01*
X379105D02*
X380005D01*
X385105D02*
X386005D01*
X401505D02*
X402605D01*
X367205Y549681D02*
X368005D01*
X373005D02*
X373905D01*
X379105D02*
X380005D01*
X385105D02*
X386005D01*
X401605D02*
X402705D01*
X367205Y549581D02*
X368105D01*
X373005D02*
X373905D01*
X379105D02*
X380005D01*
X385105D02*
X386005D01*
X401705D02*
X402705D01*
X367205Y549481D02*
X368205D01*
X372905D02*
X373905D01*
X379105D02*
X380005D01*
X383705D02*
X384005D01*
X385105D02*
X386105D01*
X401705D02*
X402805D01*
X367205Y549381D02*
X368305D01*
X372905D02*
X373905D01*
X379005D02*
X380005D01*
X383505D02*
X384305D01*
X385105D02*
X386105D01*
X401805D02*
X402805D01*
X367305Y549281D02*
X368705D01*
X372705D02*
X373905D01*
X379005D02*
X380005D01*
X383105D02*
X384705D01*
X385105D02*
X386805D01*
X401905D02*
X402905D01*
X367305Y549181D02*
X368905D01*
X372505D02*
X373905D01*
X379005D02*
X380005D01*
X383005D02*
X384805D01*
X385105D02*
X387005D01*
X401905D02*
X403005D01*
X367405Y549081D02*
X369405D01*
X372305D02*
X373805D01*
X379005D02*
X380005D01*
X382805D02*
X387105D01*
X402005D02*
X403005D01*
X367405Y548981D02*
X369805D01*
X372105D02*
X373705D01*
X379005D02*
X379905D01*
X382705D02*
X387205D01*
X402105D02*
X403005D01*
X367405Y548881D02*
X373705D01*
X379005D02*
X379905D01*
X382605D02*
X387305D01*
X402105D02*
X403105D01*
X367305Y548781D02*
X373605D01*
X378905D02*
X379905D01*
X382505D02*
X387405D01*
X402105D02*
X403205D01*
X367105Y548681D02*
X373505D01*
X378905D02*
X379905D01*
X382505D02*
X387505D01*
X402205D02*
X403205D01*
X367005Y548581D02*
X373405D01*
X378905D02*
X380005D01*
X382405D02*
X387505D01*
X402305D02*
X403205D01*
X366805Y548481D02*
X373305D01*
X379005D02*
X380005D01*
X382405D02*
X387605D01*
X402305D02*
X403305D01*
X366705Y548381D02*
X373005D01*
X379005D02*
X380105D01*
X382305D02*
X383505D01*
X384305D02*
X387705D01*
X402305D02*
X403305D01*
X366605Y548281D02*
X368205D01*
X368605D02*
X372905D01*
X379005D02*
X380305D01*
X382305D02*
X383405D01*
X384405D02*
X386105D01*
X386505D02*
X387705D01*
X402405D02*
X403405D01*
X366505Y548181D02*
X368005D01*
X369105D02*
X372505D01*
X379105D02*
X380505D01*
X382305D02*
X383305D01*
X384505D02*
X385905D01*
X386605D02*
X387705D01*
X402505D02*
X403405D01*
X366305Y548081D02*
X367905D01*
X369705D02*
X372305D01*
X379105D02*
X381005D01*
X382305D02*
X383305D01*
X384605D02*
X385905D01*
X386605D02*
X387805D01*
X402505D02*
X403505D01*
X366205Y547981D02*
X367705D01*
X379105D02*
X381605D01*
X381905D02*
X383305D01*
X383705D02*
X384105D01*
X384605D02*
X385805D01*
X386505D02*
X388005D01*
X402505D02*
X403505D01*
X366005Y547881D02*
X367605D01*
X379205D02*
X384305D01*
X384705D02*
X385805D01*
X386405D02*
X388205D01*
X402605D02*
X403605D01*
X365905Y547781D02*
X367405D01*
X379305D02*
X384305D01*
X384705D02*
X385805D01*
X386305D02*
X388305D01*
X402705D02*
X403605D01*
X365705Y547681D02*
X367205D01*
X379405D02*
X384405D01*
X384805D02*
X385805D01*
X386205D02*
X388405D01*
X402705D02*
X403705D01*
X365605Y547581D02*
X367105D01*
X379505D02*
X384405D01*
X384805D02*
X385805D01*
X386105D02*
X388505D01*
X402705D02*
X403705D01*
X365505Y547481D02*
X367005D01*
X379705D02*
X384405D01*
X384805D02*
X385805D01*
X386005D02*
X388605D01*
X402805D02*
X403705D01*
X365405Y547381D02*
X366905D01*
X380005D02*
X384405D01*
X384805D02*
X385805D01*
X386005D02*
X388705D01*
X402805D02*
X403805D01*
X365305Y547281D02*
X366705D01*
X380305D02*
X384305D01*
X384905D02*
X385805D01*
X386005D02*
X388805D01*
X402905D02*
X403805D01*
X365205Y547181D02*
X366605D01*
X380705D02*
X384305D01*
X384905D02*
X385805D01*
X386005D02*
X388905D01*
X402905D02*
X403905D01*
X365105Y547081D02*
X366405D01*
X381305D02*
X384105D01*
X384905D02*
X385805D01*
X386005D02*
X388905D01*
X402905D02*
X403905D01*
X365005Y546981D02*
X366305D01*
X383005D02*
X384005D01*
X385005D02*
X385705D01*
X386005D02*
X389005D01*
X403005D02*
X403905D01*
X365005Y546881D02*
X366205D01*
X385105D02*
X385605D01*
X386005D02*
X389005D01*
X403005D02*
X403905D01*
X364905Y546781D02*
X366105D01*
X386005D02*
X387705D01*
X387905D02*
X389105D01*
X403105D02*
X404005D01*
X364905Y546681D02*
X365905D01*
X386005D02*
X387705D01*
X388005D02*
X389105D01*
X403105D02*
X404005D01*
X364805Y546581D02*
X365905D01*
X372005D02*
X372305D01*
X386005D02*
X387605D01*
X388105D02*
X389105D01*
X403105D02*
X404005D01*
X364805Y546481D02*
X365805D01*
X371705D02*
X372405D01*
X386105D02*
X387505D01*
X388105D02*
X389205D01*
X403205D02*
X404105D01*
X364805Y546381D02*
X365805D01*
X371505D02*
X372705D01*
X386105D02*
X387405D01*
X388205D02*
X389305D01*
X403205D02*
X404105D01*
X364805Y546281D02*
X365705D01*
X371405D02*
X372805D01*
X386205D02*
X387205D01*
X388205D02*
X389305D01*
X403205D02*
X404105D01*
X364805Y546181D02*
X365705D01*
X371305D02*
X372905D01*
X386405D02*
X387005D01*
X388205D02*
X389305D01*
X403305D02*
X404105D01*
X364805Y546081D02*
X365705D01*
X371205D02*
X373005D01*
X388305D02*
X389305D01*
X403305D02*
X404205D01*
X364805Y545981D02*
X365805D01*
X371205D02*
X373005D01*
X387805D02*
X389305D01*
X403305D02*
X404205D01*
X364805Y545881D02*
X365905D01*
X371105D02*
X373105D01*
X387605D02*
X389305D01*
X403305D02*
X404205D01*
X364805Y545781D02*
X366205D01*
X371105D02*
X373105D01*
X387505D02*
X389405D01*
X403305D02*
X404305D01*
X364905Y545681D02*
X366305D01*
X371105D02*
X373205D01*
X387405D02*
X389305D01*
X403305D02*
X404305D01*
X364905Y545581D02*
X366505D01*
X371105D02*
X373205D01*
X387205D02*
X389405D01*
X403405D02*
X404305D01*
X365005Y545481D02*
X366605D01*
X371105D02*
X373205D01*
X387205D02*
X389405D01*
X403405D02*
X404305D01*
X365105Y545381D02*
X366905D01*
X371105D02*
X373205D01*
X387105D02*
X389505D01*
X403505D02*
X404305D01*
X407105D02*
X416005D01*
X365205Y545281D02*
X367005D01*
X371105D02*
X373205D01*
X387005D02*
X389505D01*
X403505D02*
X404305D01*
X406805D02*
X416405D01*
X365405Y545181D02*
X367305D01*
X371105D02*
X373105D01*
X387005D02*
X389605D01*
X403505D02*
X404305D01*
X406705D02*
X416505D01*
X365605Y545081D02*
X367505D01*
X371105D02*
X373105D01*
X387005D02*
X389605D01*
X403505D02*
X404405D01*
X406705D02*
X416605D01*
X365705Y544981D02*
X367705D01*
X371105D02*
X373005D01*
X387005D02*
X389705D01*
X403505D02*
X404405D01*
X406605D02*
X416705D01*
X365905Y544881D02*
X367805D01*
X371205D02*
X373005D01*
X387005D02*
X389705D01*
X403505D02*
X404405D01*
X406505D02*
X416705D01*
X366105Y544781D02*
X368005D01*
X371305D02*
X372905D01*
X387005D02*
X389805D01*
X403505D02*
X404405D01*
X406505D02*
X416705D01*
X366305Y544681D02*
X368205D01*
X371405D02*
X372805D01*
X387005D02*
X389805D01*
X403505D02*
X404505D01*
X406505D02*
X416705D01*
X366505Y544581D02*
X368305D01*
X371505D02*
X372705D01*
X387105D02*
X389905D01*
X403605D02*
X404505D01*
X406505D02*
X409105D01*
X411505D02*
X416805D01*
X366705Y544481D02*
X368405D01*
X371905D02*
X372305D01*
X387105D02*
X389905D01*
X403605D02*
X404505D01*
X406505D02*
X407305D01*
X415905D02*
X416805D01*
X366905Y544381D02*
X368605D01*
X387205D02*
X388605D01*
X388805D02*
X389905D01*
X403605D02*
X404505D01*
X406505D02*
X407305D01*
X415905D02*
X416805D01*
X367105Y544281D02*
X368805D01*
X387405D02*
X388205D01*
X388905D02*
X389905D01*
X403605D02*
X404505D01*
X406405D02*
X407305D01*
X416005D02*
X416905D01*
X367205Y544181D02*
X369105D01*
X387505D02*
X388105D01*
X388905D02*
X389905D01*
X403705D02*
X404505D01*
X406405D02*
X407305D01*
X416005D02*
X416905D01*
X367505Y544081D02*
X369305D01*
X388905D02*
X389905D01*
X403705D02*
X404505D01*
X406305D02*
X407205D01*
X416005D02*
X416905D01*
X367605Y543981D02*
X369405D01*
X389005D02*
X389905D01*
X403705D02*
X404505D01*
X406305D02*
X407205D01*
X416105D02*
X416905D01*
X367605Y543881D02*
X369505D01*
X388905D02*
X389905D01*
X403705D02*
X404505D01*
X406305D02*
X407205D01*
X410705D02*
X412305D01*
X416105D02*
X416905D01*
X367605Y543781D02*
X369605D01*
X389005D02*
X389905D01*
X403705D02*
X404505D01*
X406305D02*
X407105D01*
X410205D02*
X412905D01*
X416105D02*
X416905D01*
X367605Y543681D02*
X369605D01*
X388905D02*
X389905D01*
X403705D02*
X404505D01*
X406205D02*
X407105D01*
X410005D02*
X413205D01*
X416105D02*
X417005D01*
X367605Y543581D02*
X369605D01*
X388905D02*
X389905D01*
X403705D02*
X404605D01*
X406205D02*
X407105D01*
X409705D02*
X413405D01*
X416105D02*
X417005D01*
X367605Y543481D02*
X369605D01*
X387905D02*
X388605D01*
X388905D02*
X389905D01*
X403705D02*
X404605D01*
X406205D02*
X407105D01*
X409605D02*
X413705D01*
X416205D02*
X417105D01*
X367605Y543381D02*
X369605D01*
X387705D02*
X388805D01*
X388905D02*
X389905D01*
X403705D02*
X404605D01*
X406105D02*
X407005D01*
X409405D02*
X413905D01*
X416205D02*
X417105D01*
X367705Y543281D02*
X369605D01*
X387505D02*
X389905D01*
X403705D02*
X404605D01*
X406105D02*
X407005D01*
X409205D02*
X414005D01*
X416205D02*
X417105D01*
X367705Y543181D02*
X369605D01*
X387405D02*
X389905D01*
X403705D02*
X404605D01*
X406105D02*
X406905D01*
X409105D02*
X414105D01*
X416305D02*
X417105D01*
X367705Y543081D02*
X369505D01*
X387305D02*
X389905D01*
X403705D02*
X404605D01*
X406105D02*
X406905D01*
X409005D02*
X414305D01*
X416305D02*
X417105D01*
X367705Y542981D02*
X369405D01*
X373105D02*
X373305D01*
X387305D02*
X389805D01*
X403705D02*
X404605D01*
X406005D02*
X406905D01*
X408905D02*
X411105D01*
X411805D02*
X414405D01*
X416305D02*
X417205D01*
X367705Y542881D02*
X369305D01*
X372805D02*
X373505D01*
X387205D02*
X389805D01*
X403705D02*
X404605D01*
X406005D02*
X406905D01*
X408805D02*
X410405D01*
X412705D02*
X414505D01*
X416305D02*
X417205D01*
X367805Y542781D02*
X368705D01*
X372805D02*
X373605D01*
X387205D02*
X389805D01*
X403705D02*
X404605D01*
X405905D02*
X406805D01*
X408705D02*
X410305D01*
X411505D02*
X411705D01*
X412905D02*
X414605D01*
X416405D02*
X417305D01*
X367805Y542681D02*
X368605D01*
X372705D02*
X373605D01*
X387205D02*
X389705D01*
X403705D02*
X404605D01*
X405905D02*
X406805D01*
X408605D02*
X410005D01*
X411205D02*
X411905D01*
X413205D02*
X414705D01*
X416405D02*
X417305D01*
X367805Y542581D02*
X368705D01*
X372705D02*
X373705D01*
X387205D02*
X389705D01*
X403705D02*
X404605D01*
X405905D02*
X406705D01*
X408605D02*
X409905D01*
X411005D02*
X412105D01*
X413305D02*
X414805D01*
X416405D02*
X417305D01*
X367805Y542481D02*
X368705D01*
X372705D02*
X373805D01*
X387205D02*
X389605D01*
X403705D02*
X404605D01*
X405805D02*
X406705D01*
X408405D02*
X409705D01*
X411005D02*
X412205D01*
X413605D02*
X414905D01*
X416505D02*
X417405D01*
X367805Y542381D02*
X368705D01*
X372705D02*
X373805D01*
X387205D02*
X389605D01*
X403705D02*
X404605D01*
X405805D02*
X406705D01*
X408405D02*
X409605D01*
X410905D02*
X412205D01*
X413705D02*
X415005D01*
X416505D02*
X417405D01*
X367805Y542281D02*
X368705D01*
X372705D02*
X373905D01*
X387205D02*
X389505D01*
X403705D02*
X404605D01*
X405705D02*
X406705D01*
X408305D02*
X409505D01*
X410905D02*
X412205D01*
X413805D02*
X415005D01*
X416505D02*
X417505D01*
X367805Y542181D02*
X368705D01*
X372705D02*
X374105D01*
X387205D02*
X389605D01*
X403705D02*
X404605D01*
X405705D02*
X406605D01*
X408205D02*
X409405D01*
X410905D02*
X412205D01*
X413905D02*
X415105D01*
X416605D02*
X417505D01*
X367805Y542081D02*
X368805D01*
X372805D02*
X374205D01*
X387305D02*
X389605D01*
X403705D02*
X404605D01*
X405605D02*
X406505D01*
X408205D02*
X409305D01*
X410805D02*
X412205D01*
X414005D02*
X415205D01*
X416605D02*
X417505D01*
X367805Y541981D02*
X369105D01*
X372705D02*
X374305D01*
X387405D02*
X389605D01*
X403705D02*
X404605D01*
X405605D02*
X406505D01*
X408205D02*
X409305D01*
X410805D02*
X412205D01*
X414105D02*
X415205D01*
X416705D02*
X417605D01*
X367805Y541881D02*
X369405D01*
X372705D02*
X374405D01*
X387505D02*
X389605D01*
X403705D02*
X404605D01*
X405505D02*
X406505D01*
X408105D02*
X409105D01*
X410805D02*
X412205D01*
X414205D02*
X415305D01*
X416705D02*
X417705D01*
X367805Y541781D02*
X369605D01*
X372605D02*
X374405D01*
X387605D02*
X389605D01*
X403705D02*
X404605D01*
X405505D02*
X406405D01*
X408005D02*
X409105D01*
X410905D02*
X412205D01*
X414305D02*
X415305D01*
X416805D02*
X417705D01*
X367805Y541681D02*
X369705D01*
X372305D02*
X374505D01*
X388005D02*
X388305D01*
X388605D02*
X389605D01*
X403705D02*
X404605D01*
X405405D02*
X406405D01*
X408005D02*
X409105D01*
X410905D02*
X412205D01*
X413205D02*
X413505D01*
X414305D02*
X415405D01*
X416805D02*
X417805D01*
X367805Y541581D02*
X369805D01*
X371905D02*
X374505D01*
X388605D02*
X389605D01*
X403705D02*
X404605D01*
X405305D02*
X406305D01*
X408005D02*
X409005D01*
X411005D02*
X412105D01*
X413105D02*
X413805D01*
X414405D02*
X415505D01*
X416905D02*
X417805D01*
X367905Y541481D02*
X369905D01*
X371605D02*
X374505D01*
X388605D02*
X389605D01*
X403705D02*
X404605D01*
X405205D02*
X406305D01*
X407905D02*
X408905D01*
X409505D02*
X410105D01*
X411105D02*
X412005D01*
X412905D02*
X413905D01*
X414505D02*
X415505D01*
X416905D02*
X417905D01*
X367905Y541381D02*
X370005D01*
X371605D02*
X373305D01*
X373505D02*
X374605D01*
X388605D02*
X389605D01*
X403705D02*
X404605D01*
X405105D02*
X406205D01*
X407905D02*
X408905D01*
X409405D02*
X410205D01*
X411205D02*
X411905D01*
X412805D02*
X414005D01*
X414505D02*
X415505D01*
X417005D02*
X417905D01*
X367905Y541281D02*
X370005D01*
X371505D02*
X373205D01*
X373605D02*
X374605D01*
X388605D02*
X389605D01*
X403705D02*
X404605D01*
X405005D02*
X406105D01*
X407805D02*
X408905D01*
X409305D02*
X410305D01*
X412805D02*
X414105D01*
X414605D02*
X415505D01*
X417005D02*
X418005D01*
X367905Y541181D02*
X370005D01*
X371505D02*
X373205D01*
X373605D02*
X374605D01*
X388505D02*
X389605D01*
X403705D02*
X404505D01*
X404905D02*
X406005D01*
X407805D02*
X408805D01*
X409205D02*
X410405D01*
X412705D02*
X414105D01*
X414605D02*
X415605D01*
X417105D02*
X418105D01*
X367905Y541081D02*
X370005D01*
X371505D02*
X373305D01*
X373505D02*
X374605D01*
X387605D02*
X388205D01*
X388505D02*
X389505D01*
X403705D02*
X404605D01*
X404805D02*
X405905D01*
X407805D02*
X408805D01*
X409205D02*
X410505D01*
X412705D02*
X414205D01*
X414705D02*
X415605D01*
X417105D02*
X418105D01*
X367905Y540981D02*
X370005D01*
X371505D02*
X374605D01*
X387505D02*
X389505D01*
X403705D02*
X404605D01*
X404705D02*
X405905D01*
X407805D02*
X408705D01*
X409105D02*
X410505D01*
X412705D02*
X414205D01*
X414705D02*
X415605D01*
X417205D02*
X418205D01*
X368005Y540881D02*
X369905D01*
X371605D02*
X374605D01*
X387205D02*
X389505D01*
X403705D02*
X405805D01*
X407805D02*
X408705D01*
X409105D02*
X410505D01*
X412705D02*
X414205D01*
X414705D02*
X415705D01*
X417305D02*
X418305D01*
X368005Y540781D02*
X369905D01*
X371705D02*
X374505D01*
X387105D02*
X389505D01*
X403605D02*
X405705D01*
X407805D02*
X408705D01*
X409105D02*
X410505D01*
X412705D02*
X414105D01*
X414705D02*
X415705D01*
X417305D02*
X418405D01*
X368005Y540681D02*
X369805D01*
X371805D02*
X374505D01*
X387005D02*
X389405D01*
X403605D02*
X405605D01*
X407705D02*
X408705D01*
X409105D02*
X410505D01*
X412705D02*
X414105D01*
X414705D02*
X415705D01*
X417405D02*
X418505D01*
X368005Y540581D02*
X369505D01*
X372505D02*
X374405D01*
X386905D02*
X389405D01*
X403605D02*
X405505D01*
X407705D02*
X408705D01*
X409105D02*
X410505D01*
X412805D02*
X414005D01*
X414705D02*
X415705D01*
X417505D02*
X418605D01*
X368005Y540481D02*
X368905D01*
X372605D02*
X374405D01*
X386805D02*
X389305D01*
X403605D02*
X405405D01*
X407705D02*
X408605D01*
X409105D02*
X410505D01*
X412905D02*
X414005D01*
X414705D02*
X415705D01*
X417605D02*
X418705D01*
X368005Y540381D02*
X368905D01*
X372705D02*
X374305D01*
X386805D02*
X389305D01*
X403605D02*
X405305D01*
X407705D02*
X408605D01*
X409205D02*
X410405D01*
X413005D02*
X413805D01*
X414705D02*
X415705D01*
X417605D02*
X418905D01*
X368005Y540281D02*
X368905D01*
X372705D02*
X374205D01*
X386805D02*
X389205D01*
X403605D02*
X405205D01*
X407705D02*
X408605D01*
X409205D02*
X410305D01*
X413205D02*
X413605D01*
X414805D02*
X415705D01*
X417705D02*
X419005D01*
X368005Y540181D02*
X368905D01*
X372705D02*
X374105D01*
X386805D02*
X389205D01*
X403505D02*
X405005D01*
X407705D02*
X408605D01*
X409405D02*
X410205D01*
X414805D02*
X415705D01*
X417805D02*
X419205D01*
X368005Y540081D02*
X368905D01*
X372705D02*
X373905D01*
X386805D02*
X389105D01*
X403505D02*
X404905D01*
X407705D02*
X408605D01*
X409505D02*
X410105D01*
X414705D02*
X415705D01*
X417905D02*
X419305D01*
X368005Y539981D02*
X368905D01*
X372705D02*
X373805D01*
X386805D02*
X389005D01*
X403505D02*
X404705D01*
X407705D02*
X408605D01*
X414705D02*
X415705D01*
X418005D02*
X419405D01*
X368005Y539881D02*
X369005D01*
X372605D02*
X373705D01*
X386805D02*
X389005D01*
X403505D02*
X404605D01*
X407705D02*
X408605D01*
X414705D02*
X415705D01*
X418105D02*
X419405D01*
X368105Y539781D02*
X369005D01*
X372705D02*
X373605D01*
X386805D02*
X389005D01*
X403505D02*
X404605D01*
X407705D02*
X408605D01*
X413305D02*
X413705D01*
X414705D02*
X415705D01*
X418305D02*
X419505D01*
X368105Y539681D02*
X369005D01*
X372705D02*
X373605D01*
X386805D02*
X389005D01*
X403505D02*
X404505D01*
X407705D02*
X408605D01*
X409605D02*
X410205D01*
X413105D02*
X414005D01*
X414705D02*
X415705D01*
X418405D02*
X419505D01*
X368105Y539581D02*
X369005D01*
X372705D02*
X373505D01*
X386805D02*
X389005D01*
X403505D02*
X404505D01*
X407705D02*
X408605D01*
X409505D02*
X410305D01*
X413005D02*
X414005D01*
X414705D02*
X415705D01*
X418605D02*
X419605D01*
X368105Y539481D02*
X369005D01*
X372805D02*
X373405D01*
X386905D02*
X389005D01*
X403505D02*
X404505D01*
X407705D02*
X408705D01*
X409405D02*
X410505D01*
X412905D02*
X414105D01*
X414705D02*
X415705D01*
X418705D02*
X419605D01*
X368105Y539381D02*
X369005D01*
X387105D02*
X389005D01*
X403505D02*
X404505D01*
X407705D02*
X408705D01*
X409305D02*
X410505D01*
X412905D02*
X414205D01*
X414705D02*
X415605D01*
X418805D02*
X419605D01*
X368105Y539281D02*
X369305D01*
X387305D02*
X387805D01*
X387905D02*
X389105D01*
X403505D02*
X404405D01*
X407805D02*
X408705D01*
X409205D02*
X410605D01*
X412805D02*
X414205D01*
X414705D02*
X415605D01*
X418805D02*
X419605D01*
X368205Y539181D02*
X369405D01*
X388005D02*
X389105D01*
X403505D02*
X404405D01*
X407805D02*
X408705D01*
X409205D02*
X410605D01*
X412805D02*
X414205D01*
X414705D02*
X415605D01*
X418805D02*
X419705D01*
X368205Y539081D02*
X369705D01*
X388005D02*
X389105D01*
X398305D02*
X399705D01*
X403405D02*
X404405D01*
X407805D02*
X408705D01*
X409205D02*
X410605D01*
X412805D02*
X414205D01*
X414605D02*
X415505D01*
X418805D02*
X419705D01*
X368205Y538981D02*
X369805D01*
X388005D02*
X389005D01*
X398205D02*
X399805D01*
X403405D02*
X404405D01*
X407805D02*
X408805D01*
X409205D02*
X410605D01*
X412805D02*
X414205D01*
X414605D02*
X415505D01*
X418805D02*
X419705D01*
X368205Y538881D02*
X369905D01*
X388005D02*
X389005D01*
X397905D02*
X400005D01*
X403405D02*
X404405D01*
X407805D02*
X408805D01*
X409205D02*
X410605D01*
X411205D02*
X411905D01*
X412905D02*
X414205D01*
X414505D02*
X415505D01*
X418805D02*
X419705D01*
X368205Y538781D02*
X370005D01*
X388005D02*
X389005D01*
X397705D02*
X400105D01*
X403305D02*
X404405D01*
X407805D02*
X408905D01*
X409205D02*
X410605D01*
X411105D02*
X412005D01*
X412905D02*
X414205D01*
X414505D02*
X415505D01*
X418805D02*
X419705D01*
X420305D02*
X420805D01*
X368205Y538681D02*
X370105D01*
X387905D02*
X389005D01*
X397605D02*
X400205D01*
X403305D02*
X404405D01*
X407905D02*
X408905D01*
X409205D02*
X410505D01*
X411005D02*
X412105D01*
X412905D02*
X414105D01*
X414405D02*
X415405D01*
X418805D02*
X419705D01*
X420105D02*
X420905D01*
X368205Y538581D02*
X370205D01*
X387905D02*
X388905D01*
X397505D02*
X400305D01*
X403305D02*
X404405D01*
X407905D02*
X408905D01*
X409305D02*
X410505D01*
X410905D02*
X412205D01*
X413105D02*
X414005D01*
X414305D02*
X415405D01*
X418805D02*
X419705D01*
X420005D02*
X421005D01*
X368205Y538481D02*
X370205D01*
X387905D02*
X388905D01*
X397405D02*
X400405D01*
X403305D02*
X404405D01*
X408005D02*
X409105D01*
X409405D02*
X410405D01*
X410905D02*
X412205D01*
X413105D02*
X413905D01*
X414205D02*
X415305D01*
X418805D02*
X419705D01*
X419905D02*
X421005D01*
X368205Y538381D02*
X370205D01*
X386705D02*
X387305D01*
X387805D02*
X388905D01*
X397405D02*
X400405D01*
X403305D02*
X404405D01*
X408005D02*
X409105D01*
X409505D02*
X410205D01*
X410805D02*
X412205D01*
X414205D02*
X415305D01*
X418805D02*
X421005D01*
X368205Y538281D02*
X370205D01*
X386505D02*
X387605D01*
X387805D02*
X388905D01*
X397305D02*
X400505D01*
X403305D02*
X404405D01*
X408105D02*
X409205D01*
X409705D02*
X410005D01*
X410805D02*
X412205D01*
X414005D02*
X415205D01*
X418805D02*
X421105D01*
X368205Y538181D02*
X370205D01*
X386405D02*
X388905D01*
X397205D02*
X398705D01*
X399105D02*
X400505D01*
X403305D02*
X404405D01*
X408105D02*
X409305D01*
X410805D02*
X412305D01*
X413905D02*
X415205D01*
X418805D02*
X421005D01*
X368205Y538081D02*
X370205D01*
X386305D02*
X388805D01*
X397205D02*
X398505D01*
X399405D02*
X400505D01*
X403205D02*
X404405D01*
X408205D02*
X409405D01*
X410805D02*
X412205D01*
X413805D02*
X415105D01*
X418805D02*
X421005D01*
X368205Y537981D02*
X370105D01*
X386205D02*
X388805D01*
X397205D02*
X398305D01*
X399505D02*
X400605D01*
X403205D02*
X404405D01*
X408205D02*
X409505D01*
X410905D02*
X412205D01*
X413705D02*
X415005D01*
X418805D02*
X421005D01*
X421805D02*
X422405D01*
X368205Y537881D02*
X370005D01*
X386205D02*
X388705D01*
X397205D02*
X398205D01*
X399505D02*
X400605D01*
X403205D02*
X404405D01*
X408305D02*
X409605D01*
X410905D02*
X412205D01*
X413505D02*
X415005D01*
X418805D02*
X421005D01*
X421605D02*
X422505D01*
X368105Y537781D02*
X369105D01*
X369305D02*
X369705D01*
X386105D02*
X388705D01*
X397305D02*
X398105D01*
X399505D02*
X400605D01*
X403105D02*
X404405D01*
X408405D02*
X409705D01*
X411005D02*
X412205D01*
X413405D02*
X414905D01*
X418805D02*
X421005D01*
X421505D02*
X422605D01*
X368005Y537681D02*
X369105D01*
X372105D02*
X373105D01*
X386105D02*
X388605D01*
X397405D02*
X398005D01*
X399505D02*
X400605D01*
X403105D02*
X404405D01*
X408505D02*
X410005D01*
X411105D02*
X412005D01*
X413205D02*
X414705D01*
X418805D02*
X420905D01*
X421405D02*
X422705D01*
X368005Y537581D02*
X369005D01*
X371905D02*
X373305D01*
X386005D02*
X388505D01*
X397605D02*
X397705D01*
X399505D02*
X400605D01*
X403105D02*
X404405D01*
X408605D02*
X410105D01*
X411205D02*
X411905D01*
X413105D02*
X414705D01*
X418805D02*
X420905D01*
X421305D02*
X422805D01*
X367905Y537481D02*
X368905D01*
X371805D02*
X373405D01*
X386005D02*
X388405D01*
X399505D02*
X400605D01*
X403105D02*
X404405D01*
X408705D02*
X410705D01*
X411405D02*
X411805D01*
X412705D02*
X414505D01*
X418805D02*
X420805D01*
X421205D02*
X422805D01*
X367805Y537381D02*
X368905D01*
X371805D02*
X373405D01*
X386005D02*
X388305D01*
X398505D02*
X399005D01*
X399405D02*
X400605D01*
X403105D02*
X404405D01*
X408805D02*
X410905D01*
X412505D02*
X414405D01*
X418805D02*
X420805D01*
X421205D02*
X422805D01*
X367805Y537281D02*
X368805D01*
X371705D02*
X373505D01*
X386005D02*
X388305D01*
X398305D02*
X400605D01*
X403105D02*
X404405D01*
X408905D02*
X414305D01*
X418805D02*
X420705D01*
X421105D02*
X422805D01*
X367705Y537181D02*
X368805D01*
X371605D02*
X373605D01*
X386105D02*
X388305D01*
X398205D02*
X400505D01*
X403005D02*
X404405D01*
X409005D02*
X414205D01*
X418805D02*
X420605D01*
X421005D02*
X422805D01*
X367605Y537081D02*
X368705D01*
X371605D02*
X373605D01*
X386205D02*
X388305D01*
X398205D02*
X400505D01*
X403005D02*
X404405D01*
X409105D02*
X414005D01*
X418805D02*
X420605D01*
X421005D02*
X422805D01*
X367605Y536981D02*
X368705D01*
X371505D02*
X373605D01*
X386205D02*
X388305D01*
X398205D02*
X400405D01*
X402905D02*
X404405D01*
X409305D02*
X413905D01*
X418805D02*
X420505D01*
X421005D02*
X422805D01*
X367505Y536881D02*
X368605D01*
X371505D02*
X373705D01*
X386305D02*
X388305D01*
X398205D02*
X400305D01*
X402905D02*
X404405D01*
X409505D02*
X413705D01*
X418805D02*
X422805D01*
X367405Y536781D02*
X368505D01*
X371505D02*
X373705D01*
X386305D02*
X388305D01*
X398205D02*
X400305D01*
X402905D02*
X404405D01*
X409705D02*
X413505D01*
X418805D02*
X422705D01*
X367405Y536681D02*
X368505D01*
X371505D02*
X373705D01*
X386505D02*
X388405D01*
X398305D02*
X400205D01*
X402905D02*
X404405D01*
X410005D02*
X413205D01*
X418805D02*
X422605D01*
X367305Y536581D02*
X368405D01*
X371505D02*
X373605D01*
X386705D02*
X387005D01*
X387405D02*
X388405D01*
X398405D02*
X400005D01*
X402905D02*
X404405D01*
X410305D02*
X413005D01*
X418805D02*
X419705D01*
X419805D02*
X422605D01*
X367205Y536481D02*
X368305D01*
X371605D02*
X373605D01*
X387405D02*
X388505D01*
X398605D02*
X399805D01*
X402805D02*
X404405D01*
X410905D02*
X412505D01*
X418805D02*
X419605D01*
X419905D02*
X422505D01*
X367205Y536381D02*
X368205D01*
X371605D02*
X373605D01*
X387405D02*
X388505D01*
X399105D02*
X399205D01*
X402805D02*
X404405D01*
X418805D02*
X419605D01*
X420005D02*
X422405D01*
X367105Y536281D02*
X368205D01*
X371705D02*
X373505D01*
X387405D02*
X388505D01*
X402705D02*
X404405D01*
X418805D02*
X419605D01*
X420105D02*
X422305D01*
X367105Y536181D02*
X368105D01*
X371705D02*
X373505D01*
X387405D02*
X388505D01*
X402705D02*
X404405D01*
X418805D02*
X419605D01*
X420305D02*
X422205D01*
X367005Y536081D02*
X368105D01*
X371805D02*
X373405D01*
X386405D02*
X386805D01*
X387405D02*
X388405D01*
X402705D02*
X404405D01*
X418805D02*
X419605D01*
X420705D02*
X422005D01*
X367005Y535981D02*
X368005D01*
X371805D02*
X373405D01*
X386105D02*
X387105D01*
X387405D02*
X388505D01*
X402705D02*
X404405D01*
X418805D02*
X419605D01*
X420805D02*
X421905D01*
X366905Y535881D02*
X367905D01*
X372005D02*
X373205D01*
X385905D02*
X387205D01*
X387405D02*
X388505D01*
X402705D02*
X404405D01*
X418705D02*
X419605D01*
X420905D02*
X421705D01*
X366905Y535781D02*
X367905D01*
X372105D02*
X373105D01*
X385705D02*
X388505D01*
X402705D02*
X404405D01*
X418705D02*
X419605D01*
X420905D02*
X421705D01*
X422705D02*
X423405D01*
X366905Y535681D02*
X367805D01*
X372305D02*
X372905D01*
X385605D02*
X388505D01*
X402605D02*
X404705D01*
X418705D02*
X419605D01*
X420905D02*
X421705D01*
X422405D02*
X423605D01*
X366805Y535581D02*
X367805D01*
X385505D02*
X388405D01*
X402505D02*
X404805D01*
X418505D02*
X419505D01*
X420905D02*
X421705D01*
X422305D02*
X423705D01*
X366805Y535481D02*
X367705D01*
X385405D02*
X388405D01*
X402405D02*
X419505D01*
X420905D02*
X421805D01*
X422105D02*
X423705D01*
X366805Y535381D02*
X367705D01*
X385405D02*
X388405D01*
X402305D02*
X419505D01*
X421005D02*
X421805D01*
X422105D02*
X423805D01*
X366805Y535281D02*
X367705D01*
X385405D02*
X388305D01*
X402205D02*
X419405D01*
X421005D02*
X423805D01*
X366805Y535181D02*
X367705D01*
X385405D02*
X388305D01*
X402105D02*
X419405D01*
X421005D02*
X423805D01*
X366805Y535081D02*
X367805D01*
X385405D02*
X388305D01*
X402005D02*
X419305D01*
X421105D02*
X423805D01*
X366805Y534981D02*
X367905D01*
X385405D02*
X388205D01*
X401805D02*
X419205D01*
X421105D02*
X423805D01*
X366805Y534881D02*
X368005D01*
X385405D02*
X388105D01*
X401705D02*
X404105D01*
X404305D02*
X419005D01*
X421205D02*
X423805D01*
X366905Y534781D02*
X368505D01*
X385405D02*
X388105D01*
X401605D02*
X404005D01*
X404405D02*
X418705D01*
X421205D02*
X423805D01*
X366905Y534681D02*
X369005D01*
X372305D02*
X372805D01*
X385405D02*
X388105D01*
X401105D02*
X401205D01*
X401305D02*
X403905D01*
X404705D02*
X406805D01*
X421305D02*
X423805D01*
X367005Y534581D02*
X369705D01*
X372305D02*
X372905D01*
X385505D02*
X388105D01*
X400805D02*
X403805D01*
X404805D02*
X406905D01*
X421305D02*
X423705D01*
X367105Y534481D02*
X370105D01*
X372205D02*
X373005D01*
X385705D02*
X388105D01*
X400605D02*
X403705D01*
X404905D02*
X407005D01*
X421405D02*
X423705D01*
X367205Y534381D02*
X370905D01*
X372105D02*
X373005D01*
X374105D02*
X374205D01*
X385705D02*
X388105D01*
X400305D02*
X403705D01*
X404905D02*
X407205D01*
X421405D02*
X423605D01*
X367305Y534281D02*
X371105D01*
X372105D02*
X373005D01*
X373905D02*
X374405D01*
X385805D02*
X388105D01*
X400205D02*
X403505D01*
X404805D02*
X407505D01*
X421405D02*
X423505D01*
X367405Y534181D02*
X371905D01*
X372005D02*
X373005D01*
X373805D02*
X374505D01*
X386005D02*
X387005D01*
X387205D02*
X388105D01*
X399905D02*
X403505D01*
X404805D02*
X407605D01*
X421305D02*
X423405D01*
X367705Y534081D02*
X373005D01*
X373705D02*
X374605D01*
X387205D02*
X388105D01*
X399505D02*
X403305D01*
X404705D02*
X407805D01*
X421305D02*
X423205D01*
X367905Y533981D02*
X373005D01*
X373705D02*
X374605D01*
X387205D02*
X388105D01*
X399305D02*
X403205D01*
X404705D02*
X408005D01*
X421305D02*
X422105D01*
X422405D02*
X423005D01*
X368605Y533881D02*
X373105D01*
X373605D02*
X374705D01*
X387205D02*
X388105D01*
X399105D02*
X403105D01*
X404605D02*
X408305D01*
X421205D02*
X422005D01*
X369005Y533781D02*
X374705D01*
X377905D02*
X378305D01*
X387205D02*
X388105D01*
X398705D02*
X403005D01*
X404505D02*
X406305D01*
X406505D02*
X408405D01*
X421205D02*
X422005D01*
X422505D02*
X423005D01*
X369705Y533681D02*
X374705D01*
X377705D02*
X378405D01*
X387205D02*
X388105D01*
X398505D02*
X401005D01*
X401305D02*
X402905D01*
X404405D02*
X406205D01*
X406805D02*
X408605D01*
X421205D02*
X422105D01*
X422305D02*
X423305D01*
X370105Y533581D02*
X374905D01*
X377505D02*
X378505D01*
X387205D02*
X388105D01*
X398105D02*
X400805D01*
X401405D02*
X402905D01*
X404405D02*
X406105D01*
X406905D02*
X408705D01*
X421305D02*
X423405D01*
X370805Y533481D02*
X375005D01*
X377405D02*
X378505D01*
X386105D02*
X386605D01*
X387105D02*
X388105D01*
X397905D02*
X400505D01*
X401605D02*
X402905D01*
X404305D02*
X406105D01*
X407005D02*
X408805D01*
X421305D02*
X423505D01*
X371205Y533381D02*
X375705D01*
X377205D02*
X378605D01*
X385805D02*
X388105D01*
X397405D02*
X400305D01*
X401705D02*
X403105D01*
X404305D02*
X406005D01*
X407005D02*
X408805D01*
X421305D02*
X423605D01*
X371705Y533281D02*
X375905D01*
X377105D02*
X378605D01*
X385605D02*
X388105D01*
X397205D02*
X400005D01*
X401805D02*
X403305D01*
X404105D02*
X405905D01*
X406905D02*
X408905D01*
X421305D02*
X423605D01*
X371705Y533181D02*
X376505D01*
X377005D02*
X378505D01*
X385505D02*
X388105D01*
X396705D02*
X399705D01*
X401905D02*
X403505D01*
X404105D02*
X405905D01*
X406905D02*
X409005D01*
X421405D02*
X423705D01*
X371605Y533081D02*
X376705D01*
X376905D02*
X378505D01*
X385505D02*
X388005D01*
X396605D02*
X399405D01*
X402105D02*
X403705D01*
X404005D02*
X405805D01*
X406905D02*
X409005D01*
X421405D02*
X423805D01*
X371505Y532981D02*
X372605D01*
X373305D02*
X378405D01*
X385405D02*
X388005D01*
X396005D02*
X399205D01*
X402205D02*
X405705D01*
X406805D02*
X409005D01*
X421405D02*
X423805D01*
X371305Y532881D02*
X372505D01*
X373605D02*
X378205D01*
X385405D02*
X387905D01*
X395805D02*
X398805D01*
X402405D02*
X405605D01*
X406805D02*
X409105D01*
X421405D02*
X423805D01*
X371005Y532781D02*
X372405D01*
X373605D02*
X378105D01*
X385405D02*
X387905D01*
X395205D02*
X398605D01*
X402505D02*
X405605D01*
X406705D02*
X409105D01*
X421405D02*
X423805D01*
X370905Y532681D02*
X372305D01*
X373505D02*
X374405D01*
X374705D02*
X377905D01*
X385405D02*
X387905D01*
X394905D02*
X398205D01*
X402705D02*
X405505D01*
X406705D02*
X409105D01*
X421405D02*
X423805D01*
X370805Y532581D02*
X372205D01*
X373505D02*
X374405D01*
X375005D02*
X377805D01*
X385405D02*
X387905D01*
X394105D02*
X397905D01*
X402805D02*
X405405D01*
X406605D02*
X409105D01*
X421305D02*
X423805D01*
X370705Y532481D02*
X372105D01*
X373505D02*
X374305D01*
X375505D02*
X377705D01*
X378805D02*
X379305D01*
X385405D02*
X387905D01*
X393805D02*
X397505D01*
X403005D02*
X405405D01*
X406605D02*
X409105D01*
X421305D02*
X423805D01*
X370705Y532381D02*
X372005D01*
X373405D02*
X374305D01*
X375905D02*
X377605D01*
X378705D02*
X380805D01*
X385405D02*
X387905D01*
X392705D02*
X397205D01*
X403305D02*
X405405D01*
X406505D02*
X409105D01*
X421205D02*
X423805D01*
X370705Y532281D02*
X371805D01*
X373305D02*
X374205D01*
X376305D02*
X377505D01*
X378505D02*
X381905D01*
X385405D02*
X388005D01*
X391905D02*
X396905D01*
X403505D02*
X405605D01*
X406405D02*
X409105D01*
X421205D02*
X423805D01*
X370705Y532181D02*
X371705D01*
X373305D02*
X374205D01*
X376405D02*
X377505D01*
X378505D02*
X384305D01*
X385405D02*
X388105D01*
X389905D02*
X396605D01*
X403705D02*
X405905D01*
X406405D02*
X409105D01*
X421105D02*
X423705D01*
X370805Y532081D02*
X371405D01*
X373205D02*
X374105D01*
X376505D02*
X377405D01*
X378405D02*
X396105D01*
X403905D02*
X409005D01*
X421105D02*
X422005D01*
X422205D02*
X423605D01*
X371005Y531981D02*
X371105D01*
X373105D02*
X374105D01*
X376505D02*
X377405D01*
X378305D02*
X395705D01*
X404105D02*
X409005D01*
X421005D02*
X421905D01*
X422505D02*
X423505D01*
X373105Y531881D02*
X374005D01*
X376405D02*
X377305D01*
X378205D02*
X395205D01*
X404305D02*
X408905D01*
X421005D02*
X421905D01*
X422705D02*
X423405D01*
X373005Y531781D02*
X374005D01*
X376405D02*
X377305D01*
X378105D02*
X394705D01*
X404605D02*
X408905D01*
X421005D02*
X421805D01*
X372805Y531681D02*
X373905D01*
X376405D02*
X377405D01*
X378005D02*
X394105D01*
X404805D02*
X408805D01*
X421005D02*
X421805D01*
X372705Y531581D02*
X373805D01*
X376505D02*
X377605D01*
X377905D02*
X379205D01*
X379705D02*
X393405D01*
X405105D02*
X408705D01*
X420905D02*
X422005D01*
X372705Y531481D02*
X373805D01*
X376505D02*
X379005D01*
X380805D02*
X392705D01*
X405305D02*
X408605D01*
X420905D02*
X422205D01*
X372605Y531381D02*
X373705D01*
X376505D02*
X379005D01*
X382505D02*
X391505D01*
X405605D02*
X408505D01*
X420805D02*
X422405D01*
X372605Y531281D02*
X373605D01*
X376605D02*
X378905D01*
X384305D02*
X389905D01*
X406005D02*
X408305D01*
X420705D02*
X422505D01*
X372605Y531181D02*
X373505D01*
X376605D02*
X378705D01*
X387405D02*
X388305D01*
X406505D02*
X408105D01*
X420505D02*
X422605D01*
X372705Y531081D02*
X373305D01*
X376705D02*
X378705D01*
X387405D02*
X388205D01*
X406905D02*
X407805D01*
X420405D02*
X422705D01*
X372805Y530981D02*
X373205D01*
X376805D02*
X378505D01*
X387405D02*
X388205D01*
X420305D02*
X422805D01*
X376905Y530881D02*
X378405D01*
X387405D02*
X388205D01*
X420305D02*
X422805D01*
X377105Y530781D02*
X378205D01*
X387405D02*
X388205D01*
X420205D02*
X422805D01*
X377405Y530681D02*
X378005D01*
X387405D02*
X388205D01*
X420105D02*
X422805D01*
X387305Y530581D02*
X388205D01*
X420105D02*
X422905D01*
X387005Y530481D02*
X388205D01*
X420005D02*
X422805D01*
X386705Y530381D02*
X388205D01*
X420005D02*
X420905D01*
X421105D02*
X422805D01*
X386505Y530281D02*
X388305D01*
X419905D02*
X420805D01*
X421205D02*
X422805D01*
X386305Y530181D02*
X388505D01*
X419805D02*
X420705D01*
X421305D02*
X422805D01*
X386305Y530081D02*
X388605D01*
X419805D02*
X420705D01*
X421405D02*
X422705D01*
X386205Y529981D02*
X388805D01*
X419505D02*
X420705D01*
X421505D02*
X422605D01*
X386205Y529881D02*
X388905D01*
X419205D02*
X420805D01*
X421705D02*
X422505D01*
X386105Y529781D02*
X389005D01*
X418805D02*
X421005D01*
X386105Y529681D02*
X389105D01*
X418705D02*
X421105D01*
X386105Y529581D02*
X389205D01*
X418505D02*
X421205D01*
X386205Y529481D02*
X387805D01*
X388105D02*
X389305D01*
X418405D02*
X421305D01*
X386205Y529381D02*
X387705D01*
X388305D02*
X389305D01*
X418205D02*
X421305D01*
X386205Y529281D02*
X387605D01*
X388405D02*
X389405D01*
X418205D02*
X421405D01*
X386305Y529181D02*
X387505D01*
X388505D02*
X389405D01*
X418105D02*
X421405D01*
X386405Y529081D02*
X387305D01*
X388605D02*
X389505D01*
X418005D02*
X419305D01*
X419705D02*
X421405D01*
X386705Y528981D02*
X387005D01*
X388605D02*
X390305D01*
X417905D02*
X419005D01*
X419805D02*
X421405D01*
X388605Y528881D02*
X390605D01*
X417805D02*
X418905D01*
X419805D02*
X421405D01*
X388605Y528781D02*
X390905D01*
X416905D02*
X418705D01*
X419805D02*
X421405D01*
X388505Y528681D02*
X391105D01*
X416605D02*
X418705D01*
X419905D02*
X421305D01*
X388305Y528581D02*
X391205D01*
X416205D02*
X418605D01*
X420005D02*
X421305D01*
X388205Y528481D02*
X391305D01*
X416005D02*
X418605D01*
X420105D02*
X421205D01*
X388205Y528381D02*
X391405D01*
X415805D02*
X418705D01*
X420305D02*
X421005D01*
X388105Y528281D02*
X391505D01*
X415705D02*
X418805D01*
X420505D02*
X420605D01*
X388005Y528181D02*
X389705D01*
X390205D02*
X393105D01*
X415605D02*
X418905D01*
X388005Y528081D02*
X389605D01*
X390505D02*
X393305D01*
X415505D02*
X418905D01*
X388005Y527981D02*
X389505D01*
X390605D02*
X393505D01*
X415405D02*
X416905D01*
X417205D02*
X419005D01*
X388005Y527881D02*
X389405D01*
X390705D02*
X393605D01*
X414305D02*
X414905D01*
X415305D02*
X416605D01*
X417305D02*
X419005D01*
X388005Y527781D02*
X389405D01*
X390705D02*
X393705D01*
X413905D02*
X416305D01*
X417305D02*
X419005D01*
X388005Y527681D02*
X389305D01*
X390605D02*
X393805D01*
X413605D02*
X416205D01*
X417305D02*
X419005D01*
X388005Y527581D02*
X389205D01*
X390505D02*
X393905D01*
X413405D02*
X416105D01*
X417305D02*
X419005D01*
X388105Y527481D02*
X389005D01*
X390505D02*
X392205D01*
X392605D02*
X394105D01*
X413205D02*
X416105D01*
X417305D02*
X419005D01*
X388205Y527381D02*
X388905D01*
X390405D02*
X392005D01*
X392905D02*
X394105D01*
X413005D02*
X416205D01*
X417405D02*
X419005D01*
X390305Y527281D02*
X392005D01*
X393105D02*
X394305D01*
X394705D02*
X395305D01*
X412905D02*
X416305D01*
X417405D02*
X418905D01*
X390305Y527181D02*
X392005D01*
X393205D02*
X395605D01*
X412805D02*
X416305D01*
X417505D02*
X418805D01*
X390205Y527081D02*
X392005D01*
X393305D02*
X395905D01*
X412605D02*
X414205D01*
X414705D02*
X416405D01*
X417605D02*
X418705D01*
X390205Y526981D02*
X392005D01*
X393405D02*
X396105D01*
X412505D02*
X413905D01*
X414805D02*
X416405D01*
X417905D02*
X418505D01*
X390205Y526881D02*
X392005D01*
X393305D02*
X396205D01*
X411305D02*
X413705D01*
X414805D02*
X416505D01*
X390205Y526781D02*
X392005D01*
X393105D02*
X396305D01*
X411005D02*
X413505D01*
X414805D02*
X416505D01*
X390305Y526681D02*
X391905D01*
X393105D02*
X396505D01*
X408205D02*
X409205D01*
X410705D02*
X413405D01*
X414805D02*
X416505D01*
X390305Y526581D02*
X391905D01*
X393005D02*
X396605D01*
X408005D02*
X409505D01*
X410605D02*
X413305D01*
X414805D02*
X416505D01*
X390305Y526481D02*
X391905D01*
X392905D02*
X394805D01*
X395305D02*
X398405D01*
X402105D02*
X403505D01*
X405105D02*
X406805D01*
X407705D02*
X409805D01*
X410305D02*
X413405D01*
X414805D02*
X416605D01*
X390405Y526381D02*
X391805D01*
X392805D02*
X394505D01*
X395505D02*
X398705D01*
X402005D02*
X403705D01*
X404905D02*
X407005D01*
X407505D02*
X409905D01*
X410205D02*
X413405D01*
X414805D02*
X416605D01*
X390405Y526281D02*
X391805D01*
X392705D02*
X394505D01*
X395705D02*
X399005D01*
X399805D02*
X400605D01*
X401805D02*
X403905D01*
X404705D02*
X407205D01*
X407305D02*
X413505D01*
X414805D02*
X416605D01*
X390505Y526181D02*
X391705D01*
X392705D02*
X394505D01*
X395805D02*
X399105D01*
X399505D02*
X400905D01*
X401705D02*
X404005D01*
X404505D02*
X413605D01*
X414905D02*
X416505D01*
X390705Y526081D02*
X391505D01*
X392705D02*
X394505D01*
X395705D02*
X401205D01*
X401505D02*
X411305D01*
X411905D02*
X413705D01*
X414905D02*
X416505D01*
X390805Y525981D02*
X391305D01*
X392705D02*
X394505D01*
X395705D02*
X411105D01*
X412005D02*
X413705D01*
X415005D02*
X416505D01*
X392705Y525881D02*
X394405D01*
X395605D02*
X408305D01*
X409105D02*
X410905D01*
X412005D02*
X413805D01*
X415105D02*
X416405D01*
X392705Y525781D02*
X394405D01*
X395505D02*
X402605D01*
X403105D02*
X405805D01*
X405905D02*
X408105D01*
X409305D02*
X410705D01*
X412005D02*
X413805D01*
X415205D02*
X416305D01*
X392705Y525681D02*
X394405D01*
X395505D02*
X397105D01*
X398405D02*
X402305D01*
X403405D02*
X405205D01*
X406605D02*
X407905D01*
X409305D02*
X410605D01*
X412005D02*
X413805D01*
X415605D02*
X415905D01*
X392705Y525581D02*
X394305D01*
X395405D02*
X397105D01*
X398405D02*
X402205D01*
X403505D02*
X405105D01*
X406605D02*
X407905D01*
X409305D02*
X410605D01*
X412005D02*
X413805D01*
X392805Y525481D02*
X394205D01*
X395405D02*
X397105D01*
X398405D02*
X399905D01*
X400605D02*
X402005D01*
X403605D02*
X404905D01*
X406605D02*
X407905D01*
X409305D02*
X410605D01*
X412005D02*
X413805D01*
X392805Y525381D02*
X394105D01*
X395405D02*
X397105D01*
X398305D02*
X399805D01*
X400805D02*
X402005D01*
X403605D02*
X404805D01*
X406505D02*
X407905D01*
X409205D02*
X410605D01*
X412105D02*
X413805D01*
X392905Y525281D02*
X394005D01*
X395305D02*
X397105D01*
X398305D02*
X399805D01*
X400805D02*
X401905D01*
X403605D02*
X404805D01*
X406505D02*
X407905D01*
X409205D02*
X410605D01*
X412205D02*
X413705D01*
X393005Y525181D02*
X393905D01*
X395305D02*
X397105D01*
X398205D02*
X399805D01*
X400805D02*
X402005D01*
X403505D02*
X404805D01*
X406505D02*
X407905D01*
X409205D02*
X410705D01*
X412205D02*
X413705D01*
X393205Y525081D02*
X393705D01*
X395305D02*
X397105D01*
X398205D02*
X399805D01*
X400705D02*
X402005D01*
X403505D02*
X404805D01*
X406505D02*
X407905D01*
X409105D02*
X410705D01*
X412305D02*
X413605D01*
X395305Y524981D02*
X397105D01*
X398205D02*
X399805D01*
X400705D02*
X402005D01*
X403505D02*
X404905D01*
X406505D02*
X407905D01*
X409205D02*
X410705D01*
X412405D02*
X413505D01*
X395305Y524881D02*
X397005D01*
X398205D02*
X399805D01*
X400705D02*
X402005D01*
X403505D02*
X404805D01*
X406505D02*
X407905D01*
X409205D02*
X410605D01*
X412605D02*
X413405D01*
X395405Y524781D02*
X397005D01*
X398205D02*
X399805D01*
X400605D02*
X402005D01*
X403505D02*
X404805D01*
X406505D02*
X407905D01*
X409205D02*
X410605D01*
X412905D02*
X413105D01*
X395405Y524681D02*
X396905D01*
X398205D02*
X399805D01*
X400605D02*
X402005D01*
X403505D02*
X404805D01*
X406505D02*
X407905D01*
X409205D02*
X410605D01*
X395505Y524581D02*
X396905D01*
X398305D02*
X399705D01*
X400705D02*
X402005D01*
X403505D02*
X404805D01*
X406505D02*
X407905D01*
X409305D02*
X410605D01*
X395605Y524481D02*
X396805D01*
X398305D02*
X399605D01*
X400705D02*
X401905D01*
X403605D02*
X404805D01*
X406605D02*
X407905D01*
X409305D02*
X410505D01*
X395705Y524381D02*
X396605D01*
X398405D02*
X399605D01*
X400705D02*
X401905D01*
X403605D02*
X404705D01*
X406605D02*
X407905D01*
X409405D02*
X410405D01*
X396205Y524281D02*
X396305D01*
X398505D02*
X399505D01*
X400805D02*
X401805D01*
X403705D02*
X404705D01*
X406705D02*
X407805D01*
X409605D02*
X410205D01*
X398605Y524181D02*
X399405D01*
X400805D02*
X401805D01*
X403805D02*
X404605D01*
X406805D02*
X407805D01*
X409805D02*
X409905D01*
X400905Y524081D02*
X401705D01*
X404105D02*
X404405D01*
X406905D02*
X407605D01*
X401005Y523981D02*
X401505D01*
X407105D02*
X407505D01*
D26*
X315146Y565244D02*
Y570756D01*
X320854Y565244D02*
Y570756D01*
X338854Y565244D02*
Y570756D01*
X333146Y565244D02*
Y570756D01*
X292854Y565244D02*
Y570756D01*
X287146Y565244D02*
Y570756D01*
X323244Y682854D02*
X328756D01*
X323244Y677146D02*
X328756D01*
X323244Y670854D02*
X328756D01*
X323244Y665146D02*
X328756D01*
X317248Y642854D02*
X322760D01*
X317248Y637146D02*
X322760D01*
X317244Y625146D02*
X322756D01*
X317244Y630854D02*
X322756D01*
X264874Y629701D02*
X299126D01*
X264874Y642299D02*
X299126D01*
X264874Y629701D02*
Y642299D01*
X299126Y629701D02*
Y642299D01*
X233244Y605146D02*
X238756D01*
X233244Y610854D02*
X238756D01*
X249410Y581638D02*
X250590D01*
X249410Y586362D02*
X250590D01*
X249410Y563638D02*
X250590D01*
X249410Y568362D02*
X250590D01*
X255244Y680854D02*
X260756D01*
X255244Y675146D02*
X260756D01*
X360854Y565244D02*
Y570756D01*
X355146Y565244D02*
Y570756D01*
X416854Y663244D02*
Y668756D01*
X411146Y663244D02*
Y668756D01*
Y631244D02*
Y636756D01*
X416854Y631244D02*
Y636756D01*
M02*
