G04 Layer_Color=8388736*
%FSLAX25Y25*%
%MOIN*%
G70*
G01*
G75*
%ADD17C,0.00800*%
%ADD27R,0.07296X0.04343*%
%ADD28R,0.04343X0.07296*%
%ADD29O,0.03162X0.06509*%
%ADD30R,0.04343X0.06312*%
%ADD31R,0.03950X0.03950*%
%ADD32R,0.03950X0.03950*%
%ADD33C,0.00800*%
%ADD34C,0.06800*%
%ADD35R,0.06800X0.06800*%
%ADD36C,0.05800*%
D17*
X433071Y488189D02*
Y724409D01*
X196850Y488189D02*
X433071D01*
X196850D02*
Y724409D01*
X433071D01*
D27*
X318000Y561996D02*
D03*
Y574004D02*
D03*
X336000Y574004D02*
D03*
Y561996D02*
D03*
X290000Y574004D02*
D03*
Y561996D02*
D03*
X358000Y574004D02*
D03*
Y561996D02*
D03*
X414000Y672004D02*
D03*
Y659996D02*
D03*
Y627996D02*
D03*
Y640004D02*
D03*
D28*
X319996Y680000D02*
D03*
X332004D02*
D03*
X319996Y668000D02*
D03*
X332004D02*
D03*
X314000Y640000D02*
D03*
X326008D02*
D03*
X326004Y628000D02*
D03*
X313996D02*
D03*
X242004Y608000D02*
D03*
X229996D02*
D03*
X251996Y678000D02*
D03*
X264004D02*
D03*
D29*
X267000Y625272D02*
D03*
X272000D02*
D03*
X277000D02*
D03*
X282000D02*
D03*
X287000D02*
D03*
X292000D02*
D03*
X297000D02*
D03*
X267000Y646728D02*
D03*
X272000D02*
D03*
X277000D02*
D03*
X282000D02*
D03*
X287000D02*
D03*
X292000D02*
D03*
X297000D02*
D03*
D30*
X253839Y584000D02*
D03*
X246161D02*
D03*
X253839Y566000D02*
D03*
X246161D02*
D03*
D31*
X275047Y670000D02*
D03*
X280953D02*
D03*
D32*
X300000Y585047D02*
D03*
Y590953D02*
D03*
X314000Y585047D02*
D03*
Y590953D02*
D03*
X328000Y585047D02*
D03*
Y590953D02*
D03*
D33*
X216535Y704724D02*
D03*
X413386D02*
D03*
Y507874D02*
D03*
X216535D02*
D03*
D34*
X365000Y600000D02*
D03*
X395000D02*
D03*
X365000Y680000D02*
D03*
X395000D02*
D03*
X365000Y610000D02*
D03*
X395000D02*
D03*
X365000Y620000D02*
D03*
X395000D02*
D03*
X365000Y670000D02*
D03*
X395000D02*
D03*
X365000Y660000D02*
D03*
X395000D02*
D03*
X365000Y650000D02*
D03*
X395000D02*
D03*
X365000Y630000D02*
D03*
X395000D02*
D03*
Y640000D02*
D03*
X365000D02*
D03*
X272000Y599685D02*
D03*
Y580000D02*
D03*
X318063Y542961D02*
D03*
X308063D02*
D03*
Y513039D02*
D03*
X318063D02*
D03*
X268299D02*
D03*
Y542961D02*
D03*
X220000Y670000D02*
D03*
Y660000D02*
D03*
Y650000D02*
D03*
Y640000D02*
D03*
Y630000D02*
D03*
Y620000D02*
D03*
Y560000D02*
D03*
Y530000D02*
D03*
D35*
Y680000D02*
D03*
Y570000D02*
D03*
Y540000D02*
D03*
D36*
X286000Y604000D02*
D03*
X308000Y662000D02*
D03*
X290000Y612000D02*
D03*
X296000Y664000D02*
D03*
X302000Y616000D02*
D03*
X258000Y614000D02*
D03*
X216000Y608000D02*
D03*
M02*
